<svg id="Layer_1" data-name="Layer 1" xmlns="http://www.w3.org/2000/svg" viewBox="0 0 1743.6 518.56"><g id="I_m_Fiona_a_UX_Designer_and_Artist_based_in_Edinburgh_" data-name="I m Fiona a UX Designer and Artist based in Edinburgh " style="isolation:isolate"><g style="isolation:isolate"><path d="M83.2,448.15V366.59h2.3v81.56Z" transform="translate(-83.2 -119.25)" fill="#fff"/><path d="M98.93,382.68l1.15-9.88h-1v-8.5h3v8.5l-1.5,9.88Z" transform="translate(-83.2 -119.25)" fill="#fff"/><path d="M201.86,448.15h-2.3V415q0-12.75-3.9-18.89t-12.07-6.15a21.05,21.05,0,0,0-14.76,5.8,30.47,30.47,0,0,0-8.67,14.88v37.56h-2.3V415q0-13-3.85-19t-12-6a21.08,21.08,0,0,0-14.64,5.69,31.18,31.18,0,0,0-8.91,14.87v37.68h-2.29V388.53h2.29v15.4a31.48,31.48,0,0,1,10-12.06,22.36,22.36,0,0,1,13.09-4.25,17.32,17.32,0,0,1,12.41,4.7Q158.89,397,159.7,405q4.49-8.73,10.4-13a22.33,22.33,0,0,1,13.49-4.3,18.21,18.21,0,0,1,8.1,1.66,14.62,14.62,0,0,1,5.69,5.06,24,24,0,0,1,3.39,8.55A59.52,59.52,0,0,1,201.86,415Z" transform="translate(-83.2 -119.25)" fill="#fff"/><path d="M252.17,448.15V366.59h52.5v2.3h-50.2v36.3h42.85v2.3H254.47v40.66Z" transform="translate(-83.2 -119.25)" fill="#fff"/><path d="M319.6,373.14V364.3h2.3v8.84Zm0,75V388.53h2.3v59.62Z" transform="translate(-83.2 -119.25)" fill="#fff"/><path d="M365.2,449.3a25.77,25.77,0,0,1-11-2.41,28.37,28.37,0,0,1-9.07-6.72,32.11,32.11,0,0,1-8.27-21.66,31.42,31.42,0,0,1,2.24-11.88,32.67,32.67,0,0,1,6.14-9.88,28.41,28.41,0,0,1,9.08-6.72,25.9,25.9,0,0,1,21.82,0,28.41,28.41,0,0,1,9.08,6.72,32.67,32.67,0,0,1,6.14,9.88,31.42,31.42,0,0,1,2.24,11.88,31.88,31.88,0,0,1-2.18,11.78,31.29,31.29,0,0,1-6.14,9.88,29.31,29.31,0,0,1-9.08,6.72A25.35,25.35,0,0,1,365.2,449.3Zm-26.07-30.55a29,29,0,0,0,3.5,14.12,28,28,0,0,0,9.42,10.29,24,24,0,0,0,26.13-.06,28.65,28.65,0,0,0,9.54-10.46,30.16,30.16,0,0,0,0-28.43,29,29,0,0,0-9.48-10.39,23.45,23.45,0,0,0-26,.06,28.93,28.93,0,0,0-9.53,10.51A29.48,29.48,0,0,0,339.13,418.75Z" transform="translate(-83.2 -119.25)" fill="#fff"/><path d="M454.8,448.15h-2.3V415q0-13-3.61-19t-11.66-6a25,25,0,0,0-11.2,2.7,30,30,0,0,0-9.48,7.35,28.09,28.09,0,0,0-5.74,10.51v37.68h-2.3V388.53h2.3v15.4a29.58,29.58,0,0,1,6.66-8.5,31.82,31.82,0,0,1,9.25-5.75,27.41,27.41,0,0,1,10.39-2.06,17.57,17.57,0,0,1,7.93,1.66,14,14,0,0,1,5.51,5,23.92,23.92,0,0,1,3.22,8.5,62.67,62.67,0,0,1,1,12.17Z" transform="translate(-83.2 -119.25)" fill="#fff"/><path d="M468.24,431a13.39,13.39,0,0,1,3.16-8.85,21,21,0,0,1,8.67-6A34.41,34.41,0,0,1,492.82,414a64.63,64.63,0,0,1,10.4.86,49.09,49.09,0,0,1,9.59,2.47v-6.78q0-9.3-5.34-15t-14.19-5.69a26.07,26.07,0,0,0-9.24,1.9A45.49,45.49,0,0,0,474,397.26l-1.37-1.83a52.23,52.23,0,0,1,10.91-5.86,27.67,27.67,0,0,1,9.76-1.95q10,0,15.91,6.2t5.92,16.77v33a2.52,2.52,0,0,0,.51,1.72,1.72,1.72,0,0,0,1.33.57v2.3a6.63,6.63,0,0,1-1-.06,1.67,1.67,0,0,1-.57-.17,3.64,3.64,0,0,1-1.84-1.66,5.37,5.37,0,0,1-.69-2.7V438a27.89,27.89,0,0,1-10.8,8.27,35,35,0,0,1-14.47,3,19.84,19.84,0,0,1-9.77-2.41,18.62,18.62,0,0,1-6.95-6.61A17.26,17.26,0,0,1,468.24,431Zm42.85,5.4a9.49,9.49,0,0,0,1.32-2.47,7.09,7.09,0,0,0,.4-2.25V419.89a47.45,47.45,0,0,0-9.59-2.69,60.56,60.56,0,0,0-10.4-.87q-10,0-16.14,4T470.54,431a15.06,15.06,0,0,0,2.24,8.1,16.17,16.17,0,0,0,6.14,5.74,17.73,17.73,0,0,0,8.62,2.12,33.78,33.78,0,0,0,14.07-2.87A21.23,21.23,0,0,0,511.09,436.44Z" transform="translate(-83.2 -119.25)" fill="#fff"/><path d="M537.28,457.46l1.15-8.16h-1v-8.5h3v8.5l-1.49,8.16Z" transform="translate(-83.2 -119.25)" fill="#fff"/><path d="M588.28,431a13.39,13.39,0,0,1,3.16-8.85,21,21,0,0,1,8.67-6A34.37,34.37,0,0,1,612.86,414a64.73,64.73,0,0,1,10.4.86,49.28,49.28,0,0,1,9.59,2.47v-6.78q0-9.3-5.34-15t-14.19-5.69a26.08,26.08,0,0,0-9.25,1.9A45.66,45.66,0,0,0,594,397.26l-1.38-1.83a52.54,52.54,0,0,1,10.92-5.86,27.67,27.67,0,0,1,9.76-1.95q10,0,15.91,6.2t5.92,16.77v33a2.52,2.52,0,0,0,.51,1.72,1.72,1.72,0,0,0,1.32.57v2.3a6.49,6.49,0,0,1-1-.06,1.67,1.67,0,0,1-.57-.17,3.64,3.64,0,0,1-1.84-1.66,5.37,5.37,0,0,1-.69-2.7V438a27.89,27.89,0,0,1-10.8,8.27,35,35,0,0,1-14.47,3,19.84,19.84,0,0,1-9.77-2.41,18.62,18.62,0,0,1-6.95-6.61A17.26,17.26,0,0,1,588.28,431Zm42.84,5.4a9.25,9.25,0,0,0,1.33-2.47,7.38,7.38,0,0,0,.4-2.25V419.89a47.64,47.64,0,0,0-9.59-2.69,60.64,60.64,0,0,0-10.4-.87q-10,0-16.14,4T590.58,431a15.14,15.14,0,0,0,2.23,8.1,16.28,16.28,0,0,0,6.15,5.74,17.7,17.7,0,0,0,8.62,2.12,33.78,33.78,0,0,0,14.07-2.87A21.15,21.15,0,0,0,631.12,436.44Z" transform="translate(-83.2 -119.25)" fill="#fff"/><path d="M717.51,448.73q-9.66,0-16.15-3.51a27.29,27.29,0,0,1-10.28-9.47,41.1,41.1,0,0,1-5.39-13.33,69.73,69.73,0,0,1-1.61-15.05V366.59h2.29v40.78a68.41,68.41,0,0,0,1.5,14.36,38.45,38.45,0,0,0,5,12.58,25.55,25.55,0,0,0,9.48,8.85q6,3.27,15,3.27T732.67,443a25.31,25.31,0,0,0,9.53-9,38.68,38.68,0,0,0,4.88-12.58,69.12,69.12,0,0,0,1.44-14.07V366.59h2.3v40.78a68.72,68.72,0,0,1-1.73,15.51,39.8,39.8,0,0,1-5.57,13.27,27.49,27.49,0,0,1-10.22,9.19Q726.93,448.73,717.51,448.73Z" transform="translate(-83.2 -119.25)" fill="#fff"/><path d="M765.06,366.59l31.48,39.52L828,366.59h2.87l-33,41.36,32,40.2h-2.87l-30.55-38.37L766,448.15h-3L795,408l-33-41.36Z" transform="translate(-83.2 -119.25)" fill="#fff"/><path d="M872.12,448.15V366.59h26.19q12.87,0,21.31,5.46a34.08,34.08,0,0,1,12.69,14.7,48.44,48.44,0,0,1,4.25,20.51q0,12.4-4.65,21.59a33.8,33.8,0,0,1-13.27,14.25q-8.61,5.06-20.33,5Zm62.15-40.89a44.92,44.92,0,0,0-4.2-19.82,32,32,0,0,0-12.17-13.61q-8-4.93-19.59-4.94H874.42v77h23.89q11.84,0,19.82-5.05A31.91,31.91,0,0,0,930.19,427,46.25,46.25,0,0,0,934.27,407.26Z" transform="translate(-83.2 -119.25)" fill="#fff"/><path d="M976.42,449.3a25.56,25.56,0,0,1-11.08-2.47,29.37,29.37,0,0,1-9.19-6.78,31.78,31.78,0,0,1-6.2-10,32.63,32.63,0,0,1-2.24-12.12,31.16,31.16,0,0,1,3.79-15.28,29.81,29.81,0,0,1,10.16-11,25.85,25.85,0,0,1,14.19-4.07,26.27,26.27,0,0,1,14.42,4.13,30.77,30.77,0,0,1,10.39,11.09,31.24,31.24,0,0,1,3.91,15.56v1.26H950a31.5,31.5,0,0,0,4.25,13.9,28.15,28.15,0,0,0,9.54,9.82A23.72,23.72,0,0,0,976.54,447a24.94,24.94,0,0,0,12.86-3.5,20.24,20.24,0,0,0,8.51-9l2.18.58a19.79,19.79,0,0,1-5.23,7.29,26.49,26.49,0,0,1-8.44,5.11A27.78,27.78,0,0,1,976.42,449.3ZM950,417.37h52.15a31.33,31.33,0,0,0-4-14.19,27.27,27.27,0,0,0-9.3-9.71,24.83,24.83,0,0,0-25.62,0,26.64,26.64,0,0,0-9.24,9.77A32.06,32.06,0,0,0,950,417.37Z" transform="translate(-83.2 -119.25)" fill="#fff"/><path d="M1035.58,449.3a32.68,32.68,0,0,1-12.52-2.35,28.23,28.23,0,0,1-10.23-7.3l1.73-1.49a32,32,0,0,0,9.65,6.66,28.33,28.33,0,0,0,11.37,2.18q8.85,0,14.36-3.84a12.28,12.28,0,0,0,5.51-10.63,9.37,9.37,0,0,0-2.41-6.84,17.57,17.57,0,0,0-7.06-4q-4.67-1.55-11.32-3-6.09-1.5-10.17-2.93a13,13,0,0,1-6.08-4q-2-2.53-2-7.24,0-6,2.92-9.65a17.45,17.45,0,0,1,7.7-5.46,29.64,29.64,0,0,1,10.4-1.77,28.3,28.3,0,0,1,12.35,2.46q5.1,2.48,7.06,6.15l-2.07.92a13.5,13.5,0,0,0-7.12-5.4,30.48,30.48,0,0,0-10.68-1.84,26.45,26.45,0,0,0-9.08,1.5,14.84,14.84,0,0,0-6.66,4.59,12.55,12.55,0,0,0-2.53,8.16,9.56,9.56,0,0,0,1.73,6.08,11.33,11.33,0,0,0,5.28,3.45q3.55,1.26,9.08,2.64c4.74,1.08,8.84,2.18,12.29,3.33a19.62,19.62,0,0,1,7.92,4.54q2.76,2.82,2.76,8a14.89,14.89,0,0,1-6.09,12.47Q1045.57,449.3,1035.58,449.3Z" transform="translate(-83.2 -119.25)" fill="#fff"/><path d="M1072.34,373.14V364.3h2.3v8.84Zm0,75V388.53h2.3v59.62Z" transform="translate(-83.2 -119.25)" fill="#fff"/><path d="M1118.29,449.3a25.33,25.33,0,0,1-11.49-2.64,29.48,29.48,0,0,1-9.13-7.06,33.45,33.45,0,0,1-6-9.89,30.47,30.47,0,0,1-2.12-11.2,33.77,33.77,0,0,1,2-11.54,32.48,32.48,0,0,1,5.68-9.94,27.07,27.07,0,0,1,8.79-6.89,25,25,0,0,1,11.2-2.52,23.29,23.29,0,0,1,14.13,4.36,44.28,44.28,0,0,1,10.22,10.45v-13.9h2.3v62.15q0,7.81-3.73,13a22.11,22.11,0,0,1-9.77,7.64,33.58,33.58,0,0,1-12.8,2.47q-10.57,0-16.55-4a27.63,27.63,0,0,1-9.3-10.29l2.18-.68a22,22,0,0,0,10,9.64,31.58,31.58,0,0,0,13.62,3,30.15,30.15,0,0,0,12-2.35,20.22,20.22,0,0,0,8.73-7,19.37,19.37,0,0,0,3.27-11.43V435.75a29.9,29.9,0,0,1-10.16,9.76A25.4,25.4,0,0,1,1118.29,449.3Zm0-2.3a22,22,0,0,0,8.27-1.61,28.19,28.19,0,0,0,7.35-4.3,25.13,25.13,0,0,0,5.4-5.92,13.59,13.59,0,0,0,2.29-6.43V407.26a24.59,24.59,0,0,0-5.68-9,29.76,29.76,0,0,0-8.67-6.15,23.55,23.55,0,0,0-10-2.24,22.64,22.64,0,0,0-10.74,2.53,24.17,24.17,0,0,0-8,6.72,32.07,32.07,0,0,0-4.94,9.25,31.13,31.13,0,0,0-1.73,10.1,29.29,29.29,0,0,0,7.7,19.88,27.58,27.58,0,0,0,8.45,6.32A23.34,23.34,0,0,0,1118.29,447Z" transform="translate(-83.2 -119.25)" fill="#fff"/><path d="M1209.49,448.15h-2.29V415q0-13-3.62-19t-11.66-6a25,25,0,0,0-11.2,2.7,30,30,0,0,0-9.48,7.35,28.09,28.09,0,0,0-5.74,10.51v37.68h-2.3V388.53h2.3v15.4a29.76,29.76,0,0,1,6.66-8.5,31.82,31.82,0,0,1,9.25-5.75,27.43,27.43,0,0,1,10.4-2.06,17.53,17.53,0,0,1,7.92,1.66,14,14,0,0,1,5.51,5,23.92,23.92,0,0,1,3.22,8.5,62.67,62.67,0,0,1,1,12.17Z" transform="translate(-83.2 -119.25)" fill="#fff"/><path d="M1252.45,449.3a25.56,25.56,0,0,1-11.08-2.47,29.37,29.37,0,0,1-9.19-6.78,31.78,31.78,0,0,1-6.2-10,32.63,32.63,0,0,1-2.24-12.12,31.16,31.16,0,0,1,3.79-15.28,29.81,29.81,0,0,1,10.16-11,25.85,25.85,0,0,1,14.19-4.07,26.27,26.27,0,0,1,14.42,4.13,30.77,30.77,0,0,1,10.39,11.09,31.24,31.24,0,0,1,3.91,15.56v1.26H1226a31.38,31.38,0,0,0,4.26,13.9,28.13,28.13,0,0,0,9.53,9.82,23.72,23.72,0,0,0,12.75,3.62,25,25,0,0,0,12.87-3.5,20.21,20.21,0,0,0,8.5-9l2.18.58a19.79,19.79,0,0,1-5.23,7.29,26.49,26.49,0,0,1-8.44,5.11A27.78,27.78,0,0,1,1252.45,449.3ZM1226,417.37h52.16a31.58,31.58,0,0,0-4-14.19,27.38,27.38,0,0,0-9.31-9.71,24.83,24.83,0,0,0-25.62,0,26.64,26.64,0,0,0-9.24,9.77A32.06,32.06,0,0,0,1226,417.37Z" transform="translate(-83.2 -119.25)" fill="#fff"/><path d="M1319.77,390.83a23.54,23.54,0,0,0-14.59,5.57,27.2,27.2,0,0,0-8.61,14.07v37.68h-2.3V388.53h2.3v15.4a29.36,29.36,0,0,1,8.32-10.4,22.07,22.07,0,0,1,11.09-4.77c.76-.07,1.47-.13,2.12-.17s1.21-.06,1.67-.06Z" transform="translate(-83.2 -119.25)" fill="#fff"/><path d="M1353.42,431a13.45,13.45,0,0,1,3.16-8.85,21.1,21.1,0,0,1,8.67-6A34.43,34.43,0,0,1,1378,414a64.61,64.61,0,0,1,10.39.86,49.09,49.09,0,0,1,9.59,2.47v-6.78q0-9.3-5.34-15t-14.18-5.69a26.08,26.08,0,0,0-9.25,1.9,45.66,45.66,0,0,0-10,5.45l-1.38-1.83a52.48,52.48,0,0,1,10.91-5.86,27.72,27.72,0,0,1,9.77-1.95q10,0,15.91,6.2t5.91,16.77v33a2.47,2.47,0,0,0,.52,1.72,1.69,1.69,0,0,0,1.32.57v2.3a6.4,6.4,0,0,1-1-.06,1.73,1.73,0,0,1-.58-.17,3.64,3.64,0,0,1-1.84-1.66,5.37,5.37,0,0,1-.69-2.7V438a27.78,27.78,0,0,1-10.79,8.27,35,35,0,0,1-14.48,3,19.81,19.81,0,0,1-9.76-2.41,18.54,18.54,0,0,1-7-6.61A17.27,17.27,0,0,1,1353.42,431Zm42.85,5.4a9.49,9.49,0,0,0,1.32-2.47,7.09,7.09,0,0,0,.4-2.25V419.89a47.45,47.45,0,0,0-9.59-2.69,60.44,60.44,0,0,0-10.39-.87q-10,0-16.14,4T1355.72,431a15.14,15.14,0,0,0,2.24,8.1,16.2,16.2,0,0,0,6.15,5.74,17.66,17.66,0,0,0,8.61,2.12,33.78,33.78,0,0,0,14.07-2.87A21.23,21.23,0,0,0,1396.27,436.44Z" transform="translate(-83.2 -119.25)" fill="#fff"/><path d="M1465.08,448.15h-2.3V415q0-13-3.62-19t-11.66-6a25,25,0,0,0-11.2,2.7,30.06,30.06,0,0,0-9.47,7.35,28.11,28.11,0,0,0-5.75,10.51v37.68h-2.29V388.53h2.29v15.4a29.79,29.79,0,0,1,6.67-8.5,31.77,31.77,0,0,1,9.24-5.75,27.5,27.5,0,0,1,10.4-2.06,17.53,17.53,0,0,1,7.92,1.66,14,14,0,0,1,5.52,5,24.11,24.11,0,0,1,3.22,8.5,62.67,62.67,0,0,1,1,12.17Z" transform="translate(-83.2 -119.25)" fill="#fff"/><path d="M1479.32,418.51a32.81,32.81,0,0,1,3.62-15.27,30.44,30.44,0,0,1,9.88-11.32,25.73,25.73,0,0,1,28.66.12,34,34,0,0,1,9.88,10.39V364.3h2.3v79.26a2.55,2.55,0,0,0,.51,1.66,1.65,1.65,0,0,0,1.32.63v2.3a3.41,3.41,0,0,1-1.49-.23,4.16,4.16,0,0,1-2-1.78,5.09,5.09,0,0,1-.69-2.58v-7.81a30,30,0,0,1-10.17,9.76,25.43,25.43,0,0,1-24.64,1.15,29.48,29.48,0,0,1-9.13-7.06,33.21,33.21,0,0,1-6-9.89A30.48,30.48,0,0,1,1479.32,418.51Zm52,10.23V407.26a23.42,23.42,0,0,0-5.63-8.73,31.64,31.64,0,0,0-8.9-6.26,23,23,0,0,0-9.83-2.36,22.56,22.56,0,0,0-10.5,2.41,24.75,24.75,0,0,0-8,6.55,31.32,31.32,0,0,0-6.89,19.64,29.29,29.29,0,0,0,7.7,19.88,27.54,27.54,0,0,0,8.44,6.32A23.38,23.38,0,0,0,1508,447a21.73,21.73,0,0,0,7.41-1.43,30.54,30.54,0,0,0,7.52-4,25.06,25.06,0,0,0,5.86-5.86A13.47,13.47,0,0,0,1531.36,428.74Z" transform="translate(-83.2 -119.25)" fill="#fff"/><path d="M1607.52,366.59h2.06l35.5,81.56h-2.53L1629.87,419h-42.71l-12.73,29.18h-2.52Zm21.35,50.09-20.32-46.75-20.39,46.75Z" transform="translate(-83.2 -119.25)" fill="#fff"/><path d="M1682.41,390.83a23.49,23.49,0,0,0-14.58,5.57,27.22,27.22,0,0,0-8.62,14.07v37.68h-2.3V388.53h2.3v15.4a29.39,29.39,0,0,1,8.33-10.4,22,22,0,0,1,11.08-4.77c.77-.07,1.48-.13,2.13-.17s1.2-.06,1.66-.06Z" transform="translate(-83.2 -119.25)" fill="#fff"/><path d="M1717.22,446a27.46,27.46,0,0,1-5.29,2.53,18,18,0,0,1-5.63.8,11.47,11.47,0,0,1-5.11-1.16,9.66,9.66,0,0,1-3.79-3.25A8.36,8.36,0,0,1,1696,440V390.83h-8.62v-2.3H1696V367.74h2.29v20.79h14.36v2.3h-14.36V440a6.65,6.65,0,0,0,2.65,5.16,8.79,8.79,0,0,0,5.39,1.8,15.14,15.14,0,0,0,6.78-1.37c1.84-.92,2.8-1.42,2.87-1.5Z" transform="translate(-83.2 -119.25)" fill="#fff"/><path d="M1727.9,373.14V364.3h2.3v8.84Zm0,75V388.53h2.3v59.62Z" transform="translate(-83.2 -119.25)" fill="#fff"/><path d="M1766.84,449.3a32.68,32.68,0,0,1-12.52-2.35,28.11,28.11,0,0,1-10.22-7.3l1.72-1.49a32,32,0,0,0,9.65,6.66,28.33,28.33,0,0,0,11.37,2.18q8.85,0,14.36-3.84a12.26,12.26,0,0,0,5.52-10.63,9.38,9.38,0,0,0-2.42-6.84,17.57,17.57,0,0,0-7.06-4q-4.65-1.55-11.32-3-6.09-1.5-10.16-2.93a13.07,13.07,0,0,1-6.09-4q-2-2.53-2-7.24,0-6,2.93-9.65a17.42,17.42,0,0,1,7.69-5.46,29.68,29.68,0,0,1,10.4-1.77,28.3,28.3,0,0,1,12.35,2.46q5.12,2.48,7.06,6.15l-2.07.92a13.5,13.5,0,0,0-7.12-5.4,30.48,30.48,0,0,0-10.68-1.84,26.39,26.39,0,0,0-9.07,1.5,14.88,14.88,0,0,0-6.67,4.59,12.55,12.55,0,0,0-2.52,8.16,9.56,9.56,0,0,0,1.72,6.08,11.33,11.33,0,0,0,5.28,3.45q3.55,1.26,9.08,2.64c4.75,1.08,8.84,2.18,12.29,3.33a19.73,19.73,0,0,1,7.93,4.54q2.74,2.82,2.75,8a14.89,14.89,0,0,1-6.09,12.47Q1776.83,449.3,1766.84,449.3Z" transform="translate(-83.2 -119.25)" fill="#fff"/><path d="M1826.8,446a27.13,27.13,0,0,1-5.28,2.53,18,18,0,0,1-5.63.8,11.44,11.44,0,0,1-5.11-1.16,9.66,9.66,0,0,1-3.79-3.25,8.37,8.37,0,0,1-1.44-4.87V390.83h-8.61v-2.3h8.61V367.74h2.3v20.79h14.36v2.3h-14.36V440a6.61,6.61,0,0,0,2.64,5.16,8.82,8.82,0,0,0,5.4,1.8,15.2,15.2,0,0,0,6.78-1.37c1.84-.92,2.79-1.42,2.87-1.5Z" transform="translate(-83.2 -119.25)" fill="#fff"/></g><g style="isolation:isolate"><path d="M478.24,613.34a25,25,0,0,1-13.38-4,30.71,30.71,0,0,1-9.94-9.6v12.41h-2.29V528.33h2.29v38.14a44.47,44.47,0,0,1,10.57-10.63,23.43,23.43,0,0,1,13.79-4.19,24.61,24.61,0,0,1,11.66,2.7,27.56,27.56,0,0,1,8.73,7.24,32.54,32.54,0,0,1,5.45,10,34.08,34.08,0,0,1,1.84,11,31.39,31.39,0,0,1-2.18,11.61,32.39,32.39,0,0,1-6.09,9.82,29.56,29.56,0,0,1-9.13,6.83A25.75,25.75,0,0,1,478.24,613.34Zm0-2.3a23.29,23.29,0,0,0,10.57-2.41,26.8,26.8,0,0,0,8.39-6.55,31.18,31.18,0,0,0,5.51-9.19,28.48,28.48,0,0,0,2-10.34,31.19,31.19,0,0,0-3.21-13.9,28.13,28.13,0,0,0-8.9-10.62A22.2,22.2,0,0,0,479.28,554a21.86,21.86,0,0,0-10.34,2.47,29,29,0,0,0-8.21,6.38,38,38,0,0,0-5.81,8.5V593a13.5,13.5,0,0,0,2.53,7,23.38,23.38,0,0,0,5.86,5.74,32.64,32.64,0,0,0,7.52,3.91A22.06,22.06,0,0,0,478.24,611Z" transform="translate(-83.2 -119.25)" fill="#fff"/><path d="M516.73,595.07a13.43,13.43,0,0,1,3.15-8.84,21.19,21.19,0,0,1,8.68-6,34.54,34.54,0,0,1,12.75-2.18,64.55,64.55,0,0,1,10.39.87,49.4,49.4,0,0,1,9.6,2.46v-6.77q0-9.32-5.35-15T541.77,554a26.27,26.27,0,0,0-9.25,1.89,46.14,46.14,0,0,0-10,5.46l-1.38-1.84A53.14,53.14,0,0,1,532,553.61a27.53,27.53,0,0,1,9.77-2q10,0,15.91,6.2t5.91,16.78v33a2.49,2.49,0,0,0,.52,1.73,1.69,1.69,0,0,0,1.32.57v2.3a6.49,6.49,0,0,1-1-.06,1.8,1.8,0,0,1-.58-.17,3.66,3.66,0,0,1-1.84-1.67,5.41,5.41,0,0,1-.68-2.7v-5.51a28,28,0,0,1-10.8,8.27,35,35,0,0,1-14.48,3,19.81,19.81,0,0,1-9.76-2.41,18.54,18.54,0,0,1-7-6.61A17.27,17.27,0,0,1,516.73,595.07Zm42.84,5.4a9.18,9.18,0,0,0,1.32-2.47,7.06,7.06,0,0,0,.41-2.24V583.93a48.42,48.42,0,0,0-9.6-2.7,61.47,61.47,0,0,0-10.39-.86q-10,0-16.14,4T519,595.07a15.1,15.1,0,0,0,2.24,8.1,16.23,16.23,0,0,0,6.15,5.75A17.77,17.77,0,0,0,536,611a33.86,33.86,0,0,0,14.08-2.87A21.15,21.15,0,0,0,559.57,600.47Z" transform="translate(-83.2 -119.25)" fill="#fff"/><path d="M599.43,613.34A32.68,32.68,0,0,1,586.91,611a28.08,28.08,0,0,1-10.22-7.29l1.72-1.49a32.33,32.33,0,0,0,9.65,6.66A28.5,28.5,0,0,0,599.43,611q8.85,0,14.36-3.85a12.23,12.23,0,0,0,5.51-10.62,9.37,9.37,0,0,0-2.41-6.84,17.57,17.57,0,0,0-7.06-4q-4.67-1.55-11.32-3-6.09-1.5-10.16-2.93a13.15,13.15,0,0,1-6.09-4q-2-2.53-2-7.24,0-6,2.93-9.65a17.36,17.36,0,0,1,7.69-5.46,29.69,29.69,0,0,1,10.4-1.78,28.3,28.3,0,0,1,12.35,2.47q5.1,2.48,7.06,6.15l-2.07.92a13.4,13.4,0,0,0-7.12-5.4A30.26,30.26,0,0,0,600.81,554a26.73,26.73,0,0,0-9.08,1.49,15,15,0,0,0-6.66,4.6,12.54,12.54,0,0,0-2.53,8.15,9.57,9.57,0,0,0,1.73,6.09,11.33,11.33,0,0,0,5.28,3.45q3.56,1.26,9.08,2.64,7.11,1.61,12.29,3.33a19.5,19.5,0,0,1,7.92,4.54q2.76,2.82,2.76,8a14.9,14.9,0,0,1-6.09,12.47Q609.42,613.34,599.43,613.34Z" transform="translate(-83.2 -119.25)" fill="#fff"/><path d="M660.54,613.34a25.56,25.56,0,0,1-11.08-2.47,29.53,29.53,0,0,1-9.19-6.78,32,32,0,0,1-6.21-10A32.83,32.83,0,0,1,631.82,582a31.17,31.17,0,0,1,3.8-15.28,29.81,29.81,0,0,1,10.16-11A25.78,25.78,0,0,1,660,551.65a26.23,26.23,0,0,1,14.41,4.14,30.77,30.77,0,0,1,10.4,11.08,31.28,31.28,0,0,1,3.91,15.57v1.26H634.12a31.45,31.45,0,0,0,4.25,13.9,28.15,28.15,0,0,0,9.54,9.82A23.8,23.8,0,0,0,660.66,611a25,25,0,0,0,12.86-3.5,20.21,20.21,0,0,0,8.5-9l2.19.57a19.75,19.75,0,0,1-5.23,7.3,26.49,26.49,0,0,1-8.44,5.11A28,28,0,0,1,660.54,613.34ZM634.12,581.4h52.15a31.33,31.33,0,0,0-4-14.18,27.27,27.27,0,0,0-9.3-9.71,24.83,24.83,0,0,0-25.62,0,26.75,26.75,0,0,0-9.25,9.77A32.18,32.18,0,0,0,634.12,581.4Z" transform="translate(-83.2 -119.25)" fill="#fff"/><path d="M698,582.55a32.81,32.81,0,0,1,3.62-15.27A30.29,30.29,0,0,1,711.49,556a25.68,25.68,0,0,1,28.66.12A33.9,33.9,0,0,1,750,566.47V528.33h2.29v79.26a2.58,2.58,0,0,0,.52,1.67,1.62,1.62,0,0,0,1.32.63v2.3a3.57,3.57,0,0,1-1.49-.23,4.18,4.18,0,0,1-2-1.78,5.12,5.12,0,0,1-.68-2.59v-7.81a30,30,0,0,1-10.17,9.77,25.43,25.43,0,0,1-24.64,1.15,29.36,29.36,0,0,1-9.13-7.07,33.4,33.4,0,0,1-6-9.88A30.71,30.71,0,0,1,698,582.55Zm52,10.23V571.3a23.42,23.42,0,0,0-5.63-8.73,31.38,31.38,0,0,0-8.91-6.27,23,23,0,0,0-9.82-2.35,22.48,22.48,0,0,0-10.51,2.41,24.82,24.82,0,0,0-8,6.55,30.8,30.8,0,0,0-5.11,9.19,31.14,31.14,0,0,0-1.78,10.45A29.39,29.39,0,0,0,708,602.43a27.55,27.55,0,0,0,8.45,6.31,23.21,23.21,0,0,0,10.28,2.3,22.06,22.06,0,0,0,7.41-1.43,30.24,30.24,0,0,0,7.52-4,25,25,0,0,0,5.86-5.85A13.5,13.5,0,0,0,750,592.78Z" transform="translate(-83.2 -119.25)" fill="#fff"/><path d="M801.71,537.18v-8.85H804v8.85Zm0,75V552.57H804v59.62Z" transform="translate(-83.2 -119.25)" fill="#fff"/><path d="M869.6,612.19h-2.29V579q0-13-3.62-19T852,554a25,25,0,0,0-11.2,2.7,30,30,0,0,0-9.48,7.35,28,28,0,0,0-5.74,10.51v37.68h-2.3V552.57h2.3V568a29.86,29.86,0,0,1,6.66-8.5,31.79,31.79,0,0,1,9.25-5.74,27.43,27.43,0,0,1,10.39-2.07,17.54,17.54,0,0,1,7.93,1.67,14.07,14.07,0,0,1,5.51,5,24.05,24.05,0,0,1,3.22,8.51,62.67,62.67,0,0,1,1,12.17Z" transform="translate(-83.2 -119.25)" fill="#fff"/><path d="M973.44,609.89v2.3H919.91V530.63h52.5v2.3h-50.2v36.41h44v2.3h-44v38.25Z" transform="translate(-83.2 -119.25)" fill="#fff"/><path d="M981.94,582.55a32.81,32.81,0,0,1,3.62-15.27A30.46,30.46,0,0,1,995.44,556a25.68,25.68,0,0,1,28.66.12,33.79,33.79,0,0,1,9.88,10.39V528.33h2.3v79.26a2.53,2.53,0,0,0,.52,1.67,1.62,1.62,0,0,0,1.32.63v2.3a3.66,3.66,0,0,1-1.5-.23,4.21,4.21,0,0,1-1.95-1.78,5.13,5.13,0,0,1-.69-2.59v-7.81a29.86,29.86,0,0,1-10.17,9.77,25.41,25.41,0,0,1-24.63,1.15,29.4,29.4,0,0,1-9.14-7.07,33.37,33.37,0,0,1-6-9.88A30.52,30.52,0,0,1,981.94,582.55Zm52,10.23V571.3a23.3,23.3,0,0,0-5.63-8.73,31.33,31.33,0,0,0-8.9-6.27,23,23,0,0,0-9.82-2.35,22.45,22.45,0,0,0-10.51,2.41,25,25,0,0,0-8,6.55,31.32,31.32,0,0,0-6.89,19.64,29,29,0,0,0,2,10.74,29.34,29.34,0,0,0,5.69,9.14,27.51,27.51,0,0,0,8.44,6.31,23.28,23.28,0,0,0,10.28,2.3,22,22,0,0,0,7.41-1.43,30.48,30.48,0,0,0,7.53-4,25,25,0,0,0,5.85-5.85A13.33,13.33,0,0,0,1034,592.78Z" transform="translate(-83.2 -119.25)" fill="#fff"/><path d="M1055.69,537.18v-8.85h2.3v8.85Zm0,75V552.57h2.3v59.62Z" transform="translate(-83.2 -119.25)" fill="#fff"/><path d="M1123.58,612.19h-2.3V579q0-13-3.62-19T1106,554a25,25,0,0,0-11.2,2.7,30,30,0,0,0-9.47,7.35,27.9,27.9,0,0,0-5.75,10.51v37.68h-2.29V552.57h2.29V568a30.21,30.21,0,0,1,6.66-8.5,31.79,31.79,0,0,1,9.25-5.74,27.48,27.48,0,0,1,10.4-2.07,17.53,17.53,0,0,1,7.92,1.67,14.17,14.17,0,0,1,5.52,5,24.24,24.24,0,0,1,3.21,8.51,62.6,62.6,0,0,1,1,12.17Z" transform="translate(-83.2 -119.25)" fill="#fff"/><path d="M1167.8,613.34a25,25,0,0,1-13.38-4,30.61,30.61,0,0,1-9.94-9.6v12.41h-2.29V528.33h2.29v38.14a44.47,44.47,0,0,1,10.57-10.63,23.43,23.43,0,0,1,13.79-4.19,24.61,24.61,0,0,1,11.66,2.7,27.56,27.56,0,0,1,8.73,7.24,32.54,32.54,0,0,1,5.45,10,34.08,34.08,0,0,1,1.84,11,31.39,31.39,0,0,1-2.18,11.61,32.39,32.39,0,0,1-6.09,9.82,29.68,29.68,0,0,1-9.13,6.83A25.75,25.75,0,0,1,1167.8,613.34Zm0-2.3a23.29,23.29,0,0,0,10.57-2.41,26.65,26.65,0,0,0,8.38-6.55,31,31,0,0,0,5.52-9.19,28.48,28.48,0,0,0,2-10.34,31.19,31.19,0,0,0-3.21-13.9A28.15,28.15,0,0,0,1182.1,558a22.15,22.15,0,0,0-13.26-4.08,21.86,21.86,0,0,0-10.34,2.47,29.13,29.13,0,0,0-8.22,6.38,38.3,38.3,0,0,0-5.8,8.5V593a13.5,13.5,0,0,0,2.53,7,23.21,23.21,0,0,0,5.86,5.74,32.64,32.64,0,0,0,7.52,3.91A22,22,0,0,0,1167.8,611Z" transform="translate(-83.2 -119.25)" fill="#fff"/><path d="M1210.76,586V552.57h2.3V586q0,12.64,4.19,18.84T1230,611a24.36,24.36,0,0,0,11-2.64,29,29,0,0,0,9.25-7.3,28.31,28.31,0,0,0,5.69-10.62V552.57h2.29v55a2.58,2.58,0,0,0,.52,1.67,1.65,1.65,0,0,0,1.32.63v2.3a6.49,6.49,0,0,1-1-.06,1.67,1.67,0,0,1-.57-.17,3.62,3.62,0,0,1-1.84-1.67,5.32,5.32,0,0,1-.69-2.7V597A30.52,30.52,0,0,1,1245,608.92a27.73,27.73,0,0,1-15,4.42q-9.42,0-14.3-6.89T1210.76,586Z" transform="translate(-83.2 -119.25)" fill="#fff"/><path d="M1303.12,554.87a23.54,23.54,0,0,0-14.59,5.57,27.16,27.16,0,0,0-8.61,14.07v37.68h-2.3V552.57h2.3V568a29.33,29.33,0,0,1,8.32-10.39,22.07,22.07,0,0,1,11.09-4.77c.76-.07,1.47-.13,2.12-.17s1.21-.06,1.67-.06Z" transform="translate(-83.2 -119.25)" fill="#fff"/><path d="M1336.09,613.34a25.33,25.33,0,0,1-11.49-2.64,29.36,29.36,0,0,1-9.13-7.07,33.4,33.4,0,0,1-6-9.88,30.71,30.71,0,0,1-2.12-11.2,33.73,33.73,0,0,1,2-11.54,32.39,32.39,0,0,1,5.69-9.94,27,27,0,0,1,8.78-6.89,25,25,0,0,1,11.2-2.53,23.29,23.29,0,0,1,14.13,4.37,44.33,44.33,0,0,1,10.23,10.45v-13.9h2.3v62.15q0,7.8-3.74,13a22.21,22.21,0,0,1-9.76,7.64,33.59,33.59,0,0,1-12.81,2.47q-10.58,0-16.54-4a27.63,27.63,0,0,1-9.31-10.28l2.19-.69a22,22,0,0,0,10,9.65,31.71,31.71,0,0,0,13.61,3,29.91,29.91,0,0,0,12-2.36,20.2,20.2,0,0,0,8.73-7,19.35,19.35,0,0,0,3.28-11.43V599.78a30,30,0,0,1-10.17,9.77A25.37,25.37,0,0,1,1336.09,613.34Zm0-2.3a21.94,21.94,0,0,0,8.27-1.61,28,28,0,0,0,7.35-4.31,25.09,25.09,0,0,0,5.4-5.91,13.72,13.72,0,0,0,2.3-6.43V571.3a24.61,24.61,0,0,0-5.69-9,29.58,29.58,0,0,0-8.67-6.15,23.55,23.55,0,0,0-10-2.24,22.52,22.52,0,0,0-10.74,2.53,24.05,24.05,0,0,0-8,6.72,32.13,32.13,0,0,0-4.94,9.24,31.13,31.13,0,0,0-1.72,10.11,29.34,29.34,0,0,0,7.7,19.88,27.51,27.51,0,0,0,8.44,6.31A23.21,23.21,0,0,0,1336.09,611Z" transform="translate(-83.2 -119.25)" fill="#fff"/><path d="M1427.29,612.19H1425V579q0-12.4-4.19-18.72T1408.46,554a23.11,23.11,0,0,0-10.74,2.7,28.63,28.63,0,0,0-14.42,17.86v37.68H1381V528.33h2.3V568a29.22,29.22,0,0,1,10.51-11.88,26.3,26.3,0,0,1,14.53-4.43,18.36,18.36,0,0,1,8.21,1.73,15.43,15.43,0,0,1,5.92,5.22,25.45,25.45,0,0,1,3.62,8.56,51.68,51.68,0,0,1,1.2,11.83Z" transform="translate(-83.2 -119.25)" fill="#fff"/></g></g><g id="Hello_" data-name="Hello " style="isolation:isolate"><g style="isolation:isolate"><path d="M778.56,132.48a40.83,40.83,0,0,0-19,15.44q-6.72,10.31-6.71,24.82c0,4.53.43,7.69,1.29,9.46a16.55,16.55,0,0,1,1.28,3q-9.92,0-14.79-4.13t-4.87-13.69q0-11.76,9.65-22.89a76.42,76.42,0,0,1,54.86-24.9q2.57,0,7.35.37l-11.76,54.77h27L834.62,120h26.46L831.86,257.47H805.39l14.71-69.11h-27l-14.7,69.11H751.91Z" transform="translate(-83.2 -119.25)" fill="#fff"/><path d="M860.9,251.49q-7.54-7.06-7.54-22.15,0-12.68,5-27.93A64.88,64.88,0,0,1,874.5,175q11.21-11.11,28.49-11.12,20.21,0,20.21,17.65a32.94,32.94,0,0,1-5.88,18.93,43.48,43.48,0,0,1-15.62,13.88,50.51,50.51,0,0,1-20.77,6q-.37,5.52-.37,7.35,0,9,3.13,12.22t10.11,3.22a30.5,30.5,0,0,0,17-4.6q7.07-4.59,15.53-14h6.25q-20.4,34-50.55,34Q868.44,258.57,860.9,251.49Zm34.46-44.75a33.84,33.84,0,0,0,9.93-11.21,29.29,29.29,0,0,0,3.76-14.34q0-7.53-4.59-7.54-6.62,0-13,11.58a88.15,88.15,0,0,0-9.1,26.29A24.31,24.31,0,0,0,895.36,206.74Z" transform="translate(-83.2 -119.25)" fill="#fff"/><path d="M930.28,253.05q-5.43-5.51-5.42-16.54a63.7,63.7,0,0,1,1.47-11.94L946,132.48l27.2-3.67-21.13,99.25a22.77,22.77,0,0,0-.74,5.88q0,3.67,1.75,5.24t5.79,1.56q5.32,0,9.92-4.5a25.73,25.73,0,0,0,6.62-11.67h7.72q-6.79,19.85-17.46,26.92t-21.14,7.08Q935.7,258.57,930.28,253.05Z" transform="translate(-83.2 -119.25)" fill="#fff"/><path d="M979.35,253.05q-5.42-5.51-5.42-16.54a63.7,63.7,0,0,1,1.47-11.94l19.67-92.09,27.2-3.67-21.14,99.25a22.77,22.77,0,0,0-.73,5.88q0,3.67,1.74,5.24c1.17,1,3.09,1.56,5.79,1.56q5.33,0,9.93-4.5a25.81,25.81,0,0,0,6.61-11.67h7.72q-6.8,19.85-17.46,26.92t-21.14,7.08Q984.77,258.57,979.35,253.05Z" transform="translate(-83.2 -119.25)" fill="#fff"/><path d="M1029.8,251.22q-7.9-7-7.9-22.06,0-12.67,5-27.85A65,65,0,0,1,1043,175q11.2-11.11,28.67-11.12,21.69,0,23.34,24.82a13.48,13.48,0,0,0,7.17-4.51,57.22,57.22,0,0,0,5.88-8.18H1114a135,135,0,0,1-8.82,15.54,29.57,29.57,0,0,1-10.11,9.09Q1093.94,218,1088,231t-15.53,20.12a34.67,34.67,0,0,1-21.13,7.08Q1037.71,258.2,1029.8,251.22Zm41.54-20.59q5.88-11,8.09-27.2-4.41-1.65-4.41-8.27,0-7.17,5.14-9.56c-.25-3.92-.89-6.64-1.93-8.18a5.67,5.67,0,0,0-5-2.29q-6.08,0-11.58,8.73a78.05,78.05,0,0,0-8.92,21.13,84.07,84.07,0,0,0-3.39,21.78q0,8.82,2,11.86t7.35,3Q1065.46,241.66,1071.34,230.63Z" transform="translate(-83.2 -119.25)" fill="#fff"/><path d="M1124.18,254.25a14.16,14.16,0,0,1-4.32-10.39,13.86,13.86,0,0,1,4.32-10.29,14.35,14.35,0,0,1,10.39-4.23,14.43,14.43,0,0,1,14.51,14.52,14.3,14.3,0,0,1-4.22,10.39,13.86,13.86,0,0,1-10.29,4.32A14.16,14.16,0,0,1,1124.18,254.25ZM1146,123.11l28.31-3.86L1147.61,215H1132Z" transform="translate(-83.2 -119.25)" fill="#fff"/></g></g></svg>