<svg xmlns="http://www.w3.org/2000/svg" xmlns:xlink="http://www.w3.org/1999/xlink" width="1920" height="750" viewBox="0 0 1920 750">
  <defs>
    <clipPath id="clip-desktop-animated">
      <rect width="1920" height="750"/>
    </clipPath>
  </defs>
  <g id="desktop-animated" clip-path="url(#clip-desktop-animated)">
    <rect width="1920" height="750" fill="#fba9cc"/>
    <rect id="background-night" width="1920" height="750" fill="#004067"/>
    <g id="stars1">
      <path id="Path_1004" data-name="Path 1004" d="M16152.929,19689.908c.063-.426-2.383-8.619-1.912-8.746s6.67,6.16,7.037,6.2,8.048-7.5,8.338-7.346-3.659,9.543-3.509,9.895,7.111,4.307,7.111,4.807-9.271-.031-9.791.412-3.315,10.793-3.783,10.793-1.485-10.539-1.757-10.793-8.933.408-9.169,0S16152.866,19690.334,16152.929,19689.908Z" transform="matrix(0.966, -0.259, 0.259, 0.966, -20550.354, -14497.047)" fill="#fff"/>
      <path id="Path_1000" data-name="Path 1000" d="M16150.033,19686.057c.038-.26-1.455-5.264-1.168-5.342s4.073,3.762,4.3,3.785,4.915-4.58,5.093-4.486-2.235,5.828-2.144,6.043,4.343,2.629,4.343,2.936-5.662-.02-5.979.252-2.025,6.592-2.312,6.592-.907-6.437-1.073-6.592-5.455.248-5.6,0S16150,19686.316,16150.033,19686.057Z" transform="matrix(0.719, 0.695, -0.695, 0.719, 2256.877, -24981.182)" fill="#fff"/>
      <path id="Path_1003" data-name="Path 1003" d="M16151.36,19687.822c.049-.336-1.881-6.8-1.51-6.9s5.265,4.863,5.555,4.893,6.352-5.92,6.581-5.8-2.889,7.533-2.77,7.811,5.612,3.4,5.612,3.793-7.316-.023-7.728.326-2.617,8.518-2.986,8.518-1.172-8.318-1.387-8.518-7.05.322-7.236,0S16151.311,19688.158,16151.36,19687.822Z" transform="translate(-15915.416 -19306.893)" fill="#fff"/>
      <path id="Path_1011" data-name="Path 1011" d="M16152.929,19689.908c.063-.426-2.383-8.619-1.912-8.746s6.67,6.16,7.037,6.2,8.048-7.5,8.338-7.346-3.659,9.543-3.509,9.895,7.111,4.307,7.111,4.807-9.271-.031-9.791.412-3.315,10.793-3.783,10.793-1.485-10.539-1.757-10.793-8.933.408-9.169,0S16152.866,19690.334,16152.929,19689.908Z" transform="matrix(0.966, -0.259, 0.259, 0.966, -20242.354, -14513.047)" fill="#fff"/>
      <path id="Path_1013" data-name="Path 1013" d="M16150.033,19686.057c.038-.26-1.455-5.264-1.168-5.342s4.073,3.762,4.3,3.785,4.915-4.58,5.093-4.486-2.235,5.828-2.144,6.043,4.343,2.629,4.343,2.936-5.662-.02-5.979.252-2.025,6.592-2.312,6.592-.907-6.437-1.073-6.592-5.455.248-5.6,0S16150,19686.316,16150.033,19686.057Z" transform="matrix(0.719, 0.695, -0.695, 0.719, 2651.877, -25182.182)" fill="#fff"/>
      <path id="Path_1001" data-name="Path 1001" d="M16152.929,19689.908c.063-.426-2.383-8.619-1.912-8.746s6.67,6.16,7.037,6.2,8.048-7.5,8.338-7.346-3.659,9.543-3.509,9.895,7.111,4.307,7.111,4.807-9.271-.031-9.791.412-3.315,10.793-3.783,10.793-1.485-10.539-1.757-10.793-8.933.408-9.169,0S16152.866,19690.334,16152.929,19689.908Z" transform="matrix(0.966, -0.259, 0.259, 0.966, -20063.354, -14659.047)" fill="#fff"/>
      <path id="Path_1018" data-name="Path 1018" d="M16152.929,19689.908c.063-.426-.921-7.135-.45-7.262s5.208,4.676,5.575,4.713,6.48-4.852,6.771-4.7-3.518,7.432-3.367,7.783,6.026,4.057,6.026,4.557-6.905-1.414-7.426-.971-2.745,8.105-3.213,8.105-1.107-8.025-1.379-8.279-8.223-.373-8.459-.781S16152.866,19690.334,16152.929,19689.908Z" transform="matrix(0.966, -0.259, 0.259, 0.966, -20166.354, -14696.047)" fill="#fff"/>
      <path id="Path_1017" data-name="Path 1017" d="M16151.36,19687.822c.049-.336-1.881-6.8-1.51-6.9s5.265,4.863,5.555,4.893,6.352-5.92,6.581-5.8-2.889,7.533-2.77,7.811,5.612,3.4,5.612,3.793-7.316-.023-7.728.326-2.617,8.518-2.986,8.518-1.172-8.318-1.387-8.518-7.05.322-7.236,0S16151.311,19688.158,16151.36,19687.822Z" transform="translate(-4161.411 -24848.49) rotate(28)" fill="#fff"/>
      <path id="Path_1015" data-name="Path 1015" d="M16151.36,19687.822c.049-.336-1.881-6.8-1.51-6.9s5.265,4.863,5.555,4.893,6.352-5.92,6.581-5.8-2.889,7.533-2.77,7.811,5.612,3.4,5.612,3.793-7.316-.023-7.728.326-2.617,8.518-2.986,8.518-1.172-8.318-1.387-8.518-7.05.322-7.236,0S16151.311,19688.158,16151.36,19687.822Z" transform="translate(-3536.411 -24637.49) rotate(28)" fill="#fff"/>
      <path id="Path_1006" data-name="Path 1006" d="M16151.36,19687.822c.049-.336-1.881-6.8-1.51-6.9s5.265,4.863,5.555,4.893,6.352-5.92,6.581-5.8-2.889,7.533-2.77,7.811,5.612,3.4,5.612,3.793-7.316-.023-7.728.326-2.617,8.518-2.986,8.518-1.172-8.318-1.387-8.518-7.05.322-7.236,0S16151.311,19688.158,16151.36,19687.822Z" transform="translate(-3595.411 -24696.49) rotate(28)" fill="#fff"/>
      <path id="Path_1012" data-name="Path 1012" d="M16152.929,19689.908c.063-.426-2.383-8.619-1.912-8.746s6.67,6.16,7.037,6.2,8.048-7.5,8.338-7.346-3.659,9.543-3.509,9.895,7.111,4.307,7.111,4.807-9.271-.031-9.791.412-3.315,10.793-3.783,10.793-1.485-10.539-1.757-10.793-8.933.408-9.169,0S16152.866,19690.334,16152.929,19689.908Z" transform="matrix(0.966, -0.259, 0.259, 0.966, -19164.354, -14526.047)" fill="#fff"/>
      <path id="Path_1002" data-name="Path 1002" d="M16151.36,19687.822c.049-.336-1.881-6.8-1.51-6.9s5.265,4.863,5.555,4.893,6.352-5.92,6.581-5.8-2.889,7.533-2.77,7.811,5.612,3.4,5.612,3.793-7.316-.023-7.728.326-2.617,8.518-2.986,8.518-1.172-8.318-1.387-8.518-7.05.322-7.236,0S16151.311,19688.158,16151.36,19687.822Z" transform="translate(-3275.411 -24714.49) rotate(28)" fill="#fff"/>
    </g>
    <g id="stars2">
      <path id="Path_1022" data-name="Path 1022" d="M16148.539,19684.066c.025-.172-.977-3.531-.785-3.582s2.734,2.523,2.885,2.539,3.3-3.074,3.416-3.012-1.5,3.912-1.437,4.055,2.914,1.766,2.914,1.973-3.8-.016-4.012.168-1.359,4.422-1.551,4.422-.609-4.318-.721-4.422-3.66.166-3.758,0S16148.512,19684.242,16148.539,19684.066Z" transform="matrix(0.719, 0.695, -0.695, 0.719, 2394.877, -24944.182)" fill="#fff"/>
      <path id="Path_1014" data-name="Path 1014" d="M16150.033,19686.057c.038-.26-1.455-5.264-1.168-5.342s4.073,3.762,4.3,3.785,4.915-4.58,5.093-4.486-2.235,5.828-2.144,6.043,4.343,2.629,4.343,2.936-5.662-.02-5.979.252-2.025,6.592-2.312,6.592-.907-6.437-1.073-6.592-5.455.248-5.6,0S16150,19686.316,16150.033,19686.057Z" transform="matrix(0.719, 0.695, -0.695, 0.719, 3173.877, -25307.182)" fill="#fff"/>
      <path id="Path_1023" data-name="Path 1023" d="M16148.787,19684.4c.027-.189-1.055-3.822-.848-3.877s2.957,2.73,3.119,2.746,3.568-3.324,3.7-3.256-1.623,4.23-1.557,4.387,3.152,1.908,3.152,2.131-4.109-.016-4.338.184-1.471,4.783-1.678,4.783-.66-4.672-.779-4.783-3.961.18-4.064,0S16148.76,19684.59,16148.787,19684.4Z" transform="matrix(0.988, 0.156, -0.156, 0.988, -11735.261, -21874.492)" fill="#fff"/>
      <path id="Path_1024" data-name="Path 1024" d="M16148.787,19684.4c.027-.189-1.055-3.822-.848-3.877s2.957,2.73,3.119,2.746,3.568-3.324,3.7-3.256-1.623,4.23-1.557,4.387,3.152,1.908,3.152,2.131-4.109-.016-4.338.184-1.471,4.783-1.678,4.783-.66-4.672-.779-4.783-3.961.18-4.064,0S16148.76,19684.59,16148.787,19684.4Z" transform="translate(-17933.32 -16807.371) rotate(-9)" fill="#fff"/>
      <path id="Path_1016" data-name="Path 1016" d="M16149.094,19684.8c.029-.205-1.154-4.174-.928-4.234s3.232,2.984,3.41,3,3.9-3.633,4.041-3.559-1.775,4.625-1.7,4.793,3.443,2.088,3.443,2.33-4.49-.014-4.74.2-1.607,5.23-1.834,5.23-.721-5.109-.852-5.23-4.326.2-4.443,0S16149.064,19685.012,16149.094,19684.8Z" transform="matrix(0.719, 0.695, -0.695, 0.719, 3835.877, -25165.182)" fill="#fff"/>
      <path id="Path_1025" data-name="Path 1025" d="M16149.094,19684.8c.029-.205-1.154-4.174-.928-4.234s3.232,2.984,3.41,3,3.9-3.633,4.041-3.559-1.775,4.625-1.7,4.793,3.443,2.088,3.443,2.33-4.49-.014-4.74.2-1.607,5.23-1.834,5.23-.721-5.109-.852-5.23-4.326.2-4.443,0S16149.064,19685.012,16149.094,19684.8Z" transform="matrix(0.719, 0.695, -0.695, 0.719, 3584.877, -25233.182)" fill="#fff"/>
      <path id="Path_1005" data-name="Path 1005" d="M16148.452,19683.953c.024-.172-.95-3.434-.763-3.486s2.658,2.455,2.8,2.471,3.205-2.988,3.321-2.928-1.458,3.8-1.4,3.943,2.832,1.715,2.832,1.914-3.692-.012-3.9.164-1.32,4.3-1.508,4.3-.591-4.2-.7-4.3-3.559.164-3.652,0S16148.427,19684.121,16148.452,19683.953Z" transform="translate(-15884.416 -19488.893)" fill="#fff"/>
      <path id="Path_1026" data-name="Path 1026" d="M16148.043,19683.408a27.146,27.146,0,0,1-.657-3.006c.161-.041,2.291,2.117,2.417,2.131s2.764-2.576,2.863-2.525-1.257,3.279-1.2,3.4,2.44,1.479,2.44,1.65-3.183-.01-3.362.141-1.138,3.707-1.3,3.707-.51-3.619-.6-3.707-3.067.143-3.148,0S16148.021,19683.553,16148.043,19683.408Z" transform="translate(-16038.416 -19596.893)" fill="#fff"/>
      <path id="Path_1027" data-name="Path 1027" d="M16148.043,19683.408a27.146,27.146,0,0,1-.657-3.006c.161-.041,2.291,2.117,2.417,2.131s2.764-2.576,2.863-2.525-1.257,3.279-1.2,3.4,2.44,1.479,2.44,1.65-3.183-.01-3.362.141-1.138,3.707-1.3,3.707-.51-3.619-.6-3.707-3.067.143-3.148,0S16148.021,19683.553,16148.043,19683.408Z" transform="translate(-15963.416 -19374.893)" fill="#fff"/>
      <path id="Path_1028" data-name="Path 1028" d="M16148.043,19683.408a27.146,27.146,0,0,1-.657-3.006c.161-.041,2.291,2.117,2.417,2.131s2.764-2.576,2.863-2.525-1.257,3.279-1.2,3.4,2.44,1.479,2.44,1.65-3.183-.01-3.362.141-1.138,3.707-1.3,3.707-.51-3.619-.6-3.707-3.067.143-3.148,0S16148.021,19683.553,16148.043,19683.408Z" transform="translate(-16034.416 -19352.893)" fill="#fff"/>
      <path id="Path_1029" data-name="Path 1029" d="M16148.043,19683.408a27.146,27.146,0,0,1-.657-3.006c.161-.041,2.291,2.117,2.417,2.131s2.764-2.576,2.863-2.525-1.257,3.279-1.2,3.4,2.44,1.479,2.44,1.65-3.183-.01-3.362.141-1.138,3.707-1.3,3.707-.51-3.619-.6-3.707-3.067.143-3.148,0S16148.021,19683.553,16148.043,19683.408Z" transform="translate(-15618.416 -19492.893)" fill="#fff"/>
      <path id="Path_1030" data-name="Path 1030" d="M16148.043,19683.408a27.146,27.146,0,0,1-.657-3.006c.161-.041,2.291,2.117,2.417,2.131s2.764-2.576,2.863-2.525-1.257,3.279-1.2,3.4,2.44,1.479,2.44,1.65-3.183-.01-3.362.141-1.138,3.707-1.3,3.707-.51-3.619-.6-3.707-3.067.143-3.148,0S16148.021,19683.553,16148.043,19683.408Z" transform="translate(2990.73 -25226.008) rotate(45)" fill="#fff"/>
      <path id="Path_1019" data-name="Path 1019" d="M16149.072,19685.184a15.762,15.762,0,0,1-.156-2.539c.164-.045,1.82,1.637,1.949,1.648s2.266-1.7,2.367-1.643-1.229,2.6-1.177,2.721,2.106,1.418,2.106,1.594-2.414-.5-2.6-.34-.96,2.834-1.125,2.834-.387-2.807-.481-2.895-2.876-.131-2.958-.273S16149.052,19685.332,16149.072,19685.184Z" transform="translate(-23589.352 5109.758) rotate(-62)" fill="#fff"/>
      <path id="Path_1031" data-name="Path 1031" d="M16149.072,19685.184a15.762,15.762,0,0,1-.156-2.539c.164-.045,1.82,1.637,1.949,1.648s2.266-1.7,2.367-1.643-1.229,2.6-1.177,2.721,2.106,1.418,2.106,1.594-2.414-.5-2.6-.34-.96,2.834-1.125,2.834-.387-2.807-.481-2.895-2.876-.131-2.958-.273S16149.052,19685.332,16149.072,19685.184Z" transform="translate(-23792.352 5101.758) rotate(-62)" fill="#fff"/>
      <path id="Path_1032" data-name="Path 1032" d="M16149.072,19685.184a15.762,15.762,0,0,1-.156-2.539c.164-.045,1.82,1.637,1.949,1.648s2.266-1.7,2.367-1.643-1.229,2.6-1.177,2.721,2.106,1.418,2.106,1.594-2.414-.5-2.6-.34-.96,2.834-1.125,2.834-.387-2.807-.481-2.895-2.876-.131-2.958-.273S16149.052,19685.332,16149.072,19685.184Z" transform="matrix(-0.454, -0.891, 0.891, -0.454, -8774.553, 23565.234)" fill="#fff"/>
      <path id="Path_1033" data-name="Path 1033" d="M16148.362,19683.832a30.955,30.955,0,0,1-.739-3.375c.182-.051,2.577,2.379,2.719,2.391s3.108-2.895,3.222-2.836-1.415,3.688-1.356,3.82,2.746,1.664,2.746,1.859-3.58-.012-3.779.158-1.282,4.17-1.463,4.17-.574-4.074-.679-4.17-3.449.158-3.543,0S16148.339,19684,16148.362,19683.832Z" transform="matrix(0.719, 0.695, -0.695, 0.719, 3411.877, -25062.182)" fill="#fff"/>
      <path id="Path_1034" data-name="Path 1034" d="M16149.094,19684.8c.029-.205-1.154-4.174-.928-4.234s3.232,2.984,3.41,3,3.9-3.633,4.041-3.559-1.775,4.625-1.7,4.793,3.443,2.088,3.443,2.33-4.49-.014-4.74.2-1.607,5.23-1.834,5.23-.721-5.109-.852-5.23-4.326.2-4.443,0S16149.064,19685.012,16149.094,19684.8Z" transform="matrix(0.891, -0.454, 0.454, 0.891, -21599.418, -10090.348)" fill="#fff"/>
      <path id="Path_1035" data-name="Path 1035" d="M16148.186,19683.6a29.058,29.058,0,0,1-.694-3.168c.171-.047,2.418,2.232,2.551,2.244s2.916-2.717,3.022-2.662-1.327,3.459-1.272,3.586,2.576,1.561,2.576,1.742-3.358-.012-3.546.148-1.2,3.914-1.372,3.914-.539-3.824-.637-3.914-3.235.148-3.323,0S16148.164,19683.752,16148.186,19683.6Z" transform="matrix(0.891, -0.454, 0.454, 0.891, -21495.418, -10115.348)" fill="#fff"/>
      <path id="Path_1036" data-name="Path 1036" d="M16148.362,19683.832a30.955,30.955,0,0,1-.739-3.375c.182-.051,2.577,2.379,2.719,2.391s3.108-2.895,3.222-2.836-1.415,3.688-1.356,3.82,2.746,1.664,2.746,1.859-3.58-.012-3.779.158-1.282,4.17-1.463,4.17-.574-4.074-.679-4.17-3.449.158-3.543,0S16148.339,19684,16148.362,19683.832Z" transform="matrix(0.719, 0.695, -0.695, 0.719, 3800.877, -24976.182)" fill="#fff"/>
      <path id="Path_1037" data-name="Path 1037" d="M16148.186,19683.6a29.058,29.058,0,0,1-.694-3.168c.171-.047,2.418,2.232,2.551,2.244s2.916-2.717,3.022-2.662-1.327,3.459-1.272,3.586,2.576,1.561,2.576,1.742-3.358-.012-3.546.148-1.2,3.914-1.372,3.914-.539-3.824-.637-3.914-3.235.148-3.323,0S16148.164,19683.752,16148.186,19683.6Z" transform="matrix(0.891, -0.454, 0.454, 0.891, -21520.418, -9947.348)" fill="#fff"/>
    </g>
    <circle id="sun" cx="106.5" cy="106.5" r="106.5" transform="translate(214 633)" fill="#f85353"/>
    <rect id="background-day" width="1920" height="750" fill="#fff"/>
    <g id="skyline" transform="translate(0.182)">
      <path id="Subtraction_17" data-name="Subtraction 17" d="M1919.587,288H-7c-.007-19.418.034-36.855.12-51.829.278-48.291,1.04-74.263,2.266-77.2a9.524,9.524,0,0,1,2.28-3.227,15.549,15.549,0,0,1,3.616-2.484,28.724,28.724,0,0,1,4.677-1.846,51.067,51.067,0,0,1,5.46-1.31c7.681-1.436,16.788-1.721,24.1-1.95h.016a112.144,112.144,0,0,0,11.63-.7c3.44-.541,9.563-4.857,17.315-10.321l.015-.01.006,0c7.673-5.409,17.222-12.139,27.4-17.439,2.635-1.373,5.24-2.609,7.743-3.674a83.012,83.012,0,0,1,7.916-2.92,62.436,62.436,0,0,1,8-1.928,48.281,48.281,0,0,1,7.994-.7c1.314,0,2.625.061,3.9.182a37.489,37.489,0,0,1,12.06-6.026,69.34,69.34,0,0,1,10.71-2.1l.014,0h.006l.029,0a37.154,37.154,0,0,0,6.83-1.33c2.8-.986,8.4-4.117,14.341-7.43l0,0,.06-.033.016-.01c6.8-3.8,14.513-8.1,19.22-9.85a28.805,28.805,0,0,1,6.185-1.455,50.59,50.59,0,0,1,6.574-.4A60.01,60.01,0,0,1,215.842,83.2a8.51,8.51,0,0,1,3.682,2.534,4.923,4.923,0,0,0,2.291,1.641,3.031,3.031,0,0,0,.354.015c.7,0,2.117-.1,3.914-.221h.021l.069,0,.043,0,.076-.005.193-.014.092-.006.072,0,1.957-.132c2.786-.184,6.407-.394,9.71-.394,3.6,0,6.118.26,7.49.772,2.106.787,6.455,3.258,11.783,7.631a78.594,78.594,0,0,1,7.291,6.786,60.544,60.544,0,0,1,6.528,8.16c2.815,4.278,9.329,9.766,19.358,16.313,8.033,5.244,16.162,9.742,19.634,11.663l.008,0,.02.011.011.006.159.087.067.037c.932.517,1.494.829,1.586.9a3.825,3.825,0,0,0,1.555.67,13.136,13.136,0,0,0,2.788.237,7.643,7.643,0,0,1,3.736,1.338,18.622,18.622,0,0,1,1.944,1.337l.018.013c1.853,1.338,18.16,13.1,20.225,13.889a7.259,7.259,0,0,0,1.932.15c6.789,0,27.582-2.131,28.464-2.222l.014,0a155.118,155.118,0,0,1,18.989-1.586c1.12,0,2.153.029,3.07.085,2.64.16,3.995.346,5.083.5l.024,0a18.684,18.684,0,0,0,2.911.236c1.671,0,4.288-.2,9.655-.734,8.646-.863,20.608-2.854,28.524-4.171h.014l.02,0,.105-.018.014,0,.059-.01h.007c4.245-.706,7.312-1.216,7.894-1.216h.047c.07.007.213.01.5.01.908,0,2.84-.037,5.285-.083h.019l.1,0,.169,0h.056l2.9-.054c3.667-.067,8.356-.145,12.1-.145,4.106,0,6.4.094,6.829.28,1.2.525,2.426,6.69,3.157,10.374l.006.03,0,.018c.18.908.367,1.848.48,2.286a19.907,19.907,0,0,1,.408,3.031v.02a8.825,8.825,0,0,0,.581,3.187,16.18,16.18,0,0,1,.856,1.673l.006.012.007.015,0,.005c.98,2.056,2.46,5.16,3.459,5.266.025,0,.06,0,.1,0,2.141,0,25.264-3.876,25.5-3.915.192-.009,20.025-.861,23.709-.909h.051c3.747,0,21.178,4.89,21.352,4.939,0-.169.079-17.87,0-18.411-.032-.221-.251-.247-.554-.282a2.128,2.128,0,0,1-1.689-.933,1.471,1.471,0,0,1-.3-1.192c.167-.7.959-1.208,1.63-1.57.306-.165,3.365-.248,9.092-.248,9.285,0,22.8.223,25.41.267h.052l31.816,2.742c.059.048,1.408,1.165,1.3,2.005s-1.669,1.464-1.735,1.49v.038c-.027,1.574-.263,15.4-.088,16.093.052.211.348.305.961.305.311,0,.682-.025.981-.044h.016l.038,0c.309-.02.659-.042.964-.042.555,0,.872.075,1,.237a4.989,4.989,0,0,1,.118,2.065v.027c-.063,1.58-.135,3.369.646,3.474.746.1,8.957.277,15.722.277,3.481,0,7.706-.048,8.073-.277.194-.121.323-.485.384-1.082a12.438,12.438,0,0,0,.008-1.908,17.822,17.822,0,0,0-.392-3.029c-.075-.21-.321-.221-.607-.234-.5-.022-1.117-.05-1.1-1.167.014-.974.755-1.178,1.375-1.178a3.938,3.938,0,0,1,1.011.147l.005,0a26.075,26.075,0,0,1,2.626-6.039,16.811,16.811,0,0,1,3.616-4.341,10.089,10.089,0,0,1,5.445-2.365,7.307,7.307,0,0,0,1.73-.48l.006-.016c.168-.8.47-2.22.6-2.652a1.155,1.155,0,0,1,1.086-.714.947.947,0,0,1,.805.4,8.148,8.148,0,0,1,.388,2.98,31.913,31.913,0,0,1,6.61,3.3,16.77,16.77,0,0,1,4.37,4.014A7.89,7.89,0,0,1,680,170.639a5.528,5.528,0,0,0,1.169.116c.1,0,.194,0,.274,0h.023l.062,0h.049c.117,0,.207-.005.292-.005.647,0,.929.167,1,1.2a1.327,1.327,0,0,1-.322,1.042,2.268,2.268,0,0,1-1.6.529,3.28,3.28,0,0,1-.342-.017c-.01.059-.513,6.418-.005,6.78a18.491,18.491,0,0,0,4.169.268,23.14,23.14,0,0,0,4.457-.268,5.308,5.308,0,0,0,1.268-1.641c.711-1.127,1.516-2.4,2.285-2.618a14.424,14.424,0,0,1,2.56-.122c1.445,0,3.314.042,5.262.088l.413.011h.039l.109,0h.03l.124,0c1.463.035,2.973.071,3.938.071a5.77,5.77,0,0,0,1.155-.055c.246-.1.1-.9-.049-1.733l0-.013v-.007c-.182-1.014-.388-2.163.053-2.323.392-.141,3.706-.353,7.216-.577h.021l.022,0h.016c3.657-.234,7.439-.475,7.829-.641.428-.181.235-1.44.066-2.552l0-.012c-.129-.84-.25-1.633-.064-1.775a11.748,11.748,0,0,1,3.3-.3,6.115,6.115,0,0,1,2.6.3c.239.234.108,1.215-.018,2.163-.133.994-.27,2.019.018,2.176a58.978,58.978,0,0,0,6.7.2c3.858,0,8.1-.08,8.276-.2.309-.212,6.836-8.686,7.113-9.134a5.013,5.013,0,0,0-.009-1.77v-.012c-.073-.8-.142-1.556.009-1.663a8.2,8.2,0,0,1,2.014-.141,12.916,12.916,0,0,1,2.39.141c.191.088.1.953.012,1.79v.008l0,.018c-.084.793-.163,1.54-.009,1.628a9.453,9.453,0,0,0,1.919.091c1.664,0,3.952-.067,4.148-.091.159-.019.089-.933.022-1.817v-.009l0-.024v-.005l0-.017v-.027a5.029,5.029,0,0,1-.016-1.545.308.308,0,0,1,.174-.028,28,28,0,0,1,4.528.859,14.463,14.463,0,0,1,0,2.988v.028a16.911,16.911,0,0,0,0,3.29,23.7,23.7,0,0,0,5.338.437c1.072,0,2.889-.057,3.01-.437.105-.329.032-4.766-.046-9.463l0-.173v-.012c-.12-7.235-.269-16.238.049-17.31.14-.474.339-.7.607-.7a1.445,1.445,0,0,1,.766.387l.048.037.022.017a1.286,1.286,0,0,0,.58.333.178.178,0,0,0,.144-.069,11.354,11.354,0,0,0,.209-1.838l0-.039v-.02l0-.029c.138-1.685.326-3.993.651-4.46a.842.842,0,0,1,.74-.331,3.284,3.284,0,0,1,1.226.331l.667-2.532a5.082,5.082,0,0,1,2.733-.932,3.028,3.028,0,0,1,.921.137.079.079,0,0,0,.024,0c.1,0,.22-.189.343-.39l0,0,.005-.009.025-.041c.144-.234.284-.444.426-.444a.21.21,0,0,1,.165.108.5.5,0,0,0,.418.222.9.9,0,0,0,.547-.222,10.811,10.811,0,0,0,.734-2.52l0-.012a11.013,11.013,0,0,1,.572-2.053.544.544,0,0,1,.462-.18,2.457,2.457,0,0,1,.8.18.019.019,0,0,1,0-.008c0-.005,0-.016,0-.034-.009-.731-.032-3.32.041-5.945.049-1.777.131-3.237.245-4.338a5.387,5.387,0,0,1,.569-2.436.219.219,0,0,1,.154-.075.2.2,0,0,1,.058.01c.289.094.526.827.7,2.179.142,1.081.247,2.559.312,4.391.112,3.16.065,6.235.065,6.258a2.1,2.1,0,0,1,.712-.172.408.408,0,0,1,.384.172,27.678,27.678,0,0,1,.583,2.885v.006l.005.027.011.059.047.262.012.067.041.229.079.442c.047.258.15.293.244.293a.6.6,0,0,0,.093-.009h.008l.008,0h.007l.014,0,.014,0a.687.687,0,0,1,.078-.006c.106,0,.222.04.286.337a1.038,1.038,0,0,0,.391.667.6.6,0,0,1,.112.109c.078.112.248.165.534.165a7.6,7.6,0,0,0,.766-.06l.03,0,.009,0,.1-.012a9.975,9.975,0,0,1,1.089-.076,2.67,2.67,0,0,1,1.463.343,2.1,2.1,0,0,1,.9,1.847,1.921,1.921,0,0,0,.326,1.127.094.094,0,0,0,.075.026,1.551,1.551,0,0,0,.476-.167l.017-.008.032-.014.017-.008.043-.019a2.046,2.046,0,0,1,.741-.215.439.439,0,0,1,.459.4,42.384,42.384,0,0,1,.429,5.684v.04a15.422,15.422,0,0,0,.125,2.067.117.117,0,0,0,.109.064c.205,0,.6-.367,1.055-.791l.005-.005.007-.006,0,0,.04-.038,0,0,.02-.019.1-.1c.5-.466,1.075-.964,1.453-.964.211,0,.344.15.406.458.152.762.057,4.966-.044,9.417v.009l0,.086v.069c-.129,5.667-.263,11.526.048,11.935a2.629,2.629,0,0,0,1.431.413,23.548,23.548,0,0,0,2.682.136c1.877,0,4-.17,4.515-.549a30.532,30.532,0,0,0,3.5-4.464l0,0v-.04c-.031-1.244-.124-5.356,0-6.028.065-.35.585-.424,1.01-.424a4.281,4.281,0,0,1,1.937.424,7.093,7.093,0,0,1-.015,2.463v.015l0,.015v.015c-.107,1.344-.218,2.73.019,2.886.263.173,1.837,2,3.225,3.609l.026.03.005.005.031.035,0,0c.893,1.037,1.906,2.212,2.221,2.528a2.3,2.3,0,0,0,1.587.472,2.347,2.347,0,0,0,1.652-.472,8.479,8.479,0,0,0-.028-2.611v-.008c-.117-1.481-.25-3.16.028-3.593.186-.289.693-.448,1.427-.448a4.524,4.524,0,0,1,2.134.448c.22.19.11,1.452,0,2.673v.013a6.05,6.05,0,0,0,0,2.457,16.575,16.575,0,0,0,4.275.51c.9,0,1.993-.088,2.107-.51a65.8,65.8,0,0,0,.225-6.741,49.077,49.077,0,0,0-.225-6.5c-.127-.26-.439-.291-.77-.323-.527-.053-1.124-.113-1.148-1.1a1.376,1.376,0,0,1,.346-1.038,1.585,1.585,0,0,1,1.123-.406c.046,0,.09,0,.13.005a18.448,18.448,0,0,1,1.66-5.5,11.734,11.734,0,0,1,2.969-3.908,8.913,8.913,0,0,1,5.189-2.044,2.146,2.146,0,0,0,.274-.589l.005-.013,0-.009c.19-.475.45-1.125.6-1.13a.707.707,0,0,1,.4-.193.3.3,0,0,1,.274.193c.192.371.619,1.415.745,1.726l.005.014a6.377,6.377,0,0,1,4.1,1.885,9.148,9.148,0,0,1,2.071,3.541,16.8,16.8,0,0,1,.823,4.959l.005,0a2.743,2.743,0,0,1,.668-.09,1.153,1.153,0,0,1,1.288,1.158,1.264,1.264,0,0,1-.293,1,1.771,1.771,0,0,1-1.275.448c-.054,0-.11,0-.161-.005-.011.069-.919,7.221-.231,7.911.375.377,2.459.453,3.337.468-.061-8.635-.125-20.476-.092-27.849a7.075,7.075,0,0,0-3.179-1.05,2.2,2.2,0,0,0-2.161,1.419c-.032.069-.061.1-.089.1s-.034-.014-.049-.042a13.694,13.694,0,0,1-.142-3.176,14.241,14.241,0,0,1,.28-3.1,1.917,1.917,0,0,1,1.16-.411,3.906,3.906,0,0,1,1.7.565l.04.02a4.153,4.153,0,0,0,1.83.586,2.148,2.148,0,0,0,.667-.105c.017-.669.039-1.11.064-1.309.063-.5.627-4.867,1.159-4.867.326,0,.571,1.637.729,4.867.4,8.159.844,24.689.344,34.31a7.212,7.212,0,0,0,2.769-.432c.24-.228.289-1.818.346-3.66V149.4c.085-2.681.19-6.017.93-6.5a10.382,10.382,0,0,1,4.1-.593c1.632,0,3.354.183,3.522.593a38.025,38.025,0,0,1,.277,4.924v.08a33.319,33.319,0,0,0,.31,5.171c.111.165.726.34,2.12.34a6.527,6.527,0,0,0,2.576-.34c.231-.22.124-2.345.03-4.219v-.056a14.5,14.5,0,0,1-.027-2.963.3.3,0,0,1,.236-.078,2.428,2.428,0,0,1,.523.093l.033.009.023.006a2.015,2.015,0,0,0,.42.079c.1,0,.153-.036.156-.109s-.012-.356-.034-.792v-.014l-.005-.1V144.9c-.1-1.909-.326-6.376.041-6.583a31.613,31.613,0,0,1,4.714-.252c-.072-4.483-.184-12.827-.141-18.325a6.9,6.9,0,0,0-3.321-1.277,1.993,1.993,0,0,0-1.939,1.311c-.034.074-.065.111-.094.111s-.035-.015-.051-.043a20.714,20.714,0,0,1,.145-5.833,1.918,1.918,0,0,1,1.16-.411,3.909,3.909,0,0,1,1.7.566l.039.02a4.175,4.175,0,0,0,1.831.586,2.138,2.138,0,0,0,.671-.107c.018-.193.037-.348.058-.461.172-.907.49-1.407.893-1.407.519,0,.988.787.995,1.407,0,.144.02.639.049,1.387l0,.051c.164,4.277.6,15.64.284,22.433a9.029,9.029,0,0,1,2.7.244c.208.2.1,1.657,0,3.2v.019l0,.018v.02c-.111,1.564-.225,3.18.009,3.408a2.188,2.188,0,0,0,1.228.2,26.751,26.751,0,0,0,2.718-.2v-.007c.062-.75.628-7.358,1.364-8.317.239-.312.753-.452,1.665-.452.353,0,.735.021,1.072.04h.017l.058,0h.031c.335.019.753.042,1.115.042a2.057,2.057,0,0,0,1.334-.285,21.073,21.073,0,0,1,4.47-13.767,24.63,24.63,0,0,1,6.42-5.618l.006,0,.009-.005a4.654,4.654,0,0,0,.568-.385c.268-.267.194-1.775.107-3.52v-.027c-.116-2.324-.261-5.217.3-6.572a10.921,10.921,0,0,1,2.605-3.4c.566-.553.974-.951.949-1.184-.006-.066-.618-6.636.288-8.936.317-.807.649-1.216.986-1.216.49,0,.842.85.971,1.216a32.2,32.2,0,0,1,.352,4.2v.046l0,.048a31.818,31.818,0,0,0,.41,4.641,7.6,7.6,0,0,0,1.542,1.664,10.925,10.925,0,0,1,2.541,2.918c.322.779.138,3.2-.04,5.532v.009c-.176,2.3-.342,4.476.041,4.578s2.209,2.82,3.9,5.815c1.007,1.785,3.367,6.164,3.523,8.258.143,1.911.214,4.579.271,6.723v.106l0,.048c.044,1.659.079,2.969.13,3.144.063.213,1.048.328,1.942.328.747,0,1.657-.086,1.761-.328a19.494,19.494,0,0,0,0-3.112v-.057a16.758,16.758,0,0,1,.006-3.073,10.342,10.342,0,0,1,3.116-.288,5.246,5.246,0,0,1,2.44.288,29.256,29.256,0,0,1,0,4.585v.028l0,.047v.005a31.054,31.054,0,0,0,.007,4.955c.126.217.755.347,1.684.347a4.315,4.315,0,0,0,2.109-.347,18,18,0,0,0-.007-3.3v-.066a18.888,18.888,0,0,1,.009-3.68,4.369,4.369,0,0,1,2.351-.446c.982,0,1.629.163,1.775.446.34.657.06,13.063,0,15.543v4.356h4.779l0-.037c-.075-1.273-.425-7.657,0-8.273.154-.222.831-.481,2.232-.481.987,0,2.15.15,2.37.481.232.348.128,2.274.036,3.973a13.383,13.383,0,0,0-.036,2.5c.115.245,1.152.477,2.134.477.846,0,1.378-.174,1.461-.477.109-.4.052-3.592,0-6.678-.056-3.177-.11-6.175,0-6.381.125-.23,1.077-.255,1.48-.255a5.185,5.185,0,0,1,2,.255,20.854,20.854,0,0,1,0,3.142,22.26,22.26,0,0,0,0,3.448c.021.031.077.047.169.047a14.666,14.666,0,0,0,4.156-1.43c.165-.275,0-5.158,0-5.207.031,0,5.592.116,9.414.116a24.028,24.028,0,0,0,3.581-.116,3.784,3.784,0,0,0,.415-1.193c.717-2.583,2.395-8.63,7.172-9.118.508-.052.455-1.027.4-2.06s-.112-2.08.309-2.524a.685.685,0,0,1,.519-.209h.015a.554.554,0,0,1,.42.161c.247.265.216.832.18,1.489-.078,1.429-.184,3.386,2.576,3.676a4.718,4.718,0,0,1,3.968,3.364,18,18,0,0,1,.938,4.987,3.554,3.554,0,0,0,.234,1.427,3.969,3.969,0,0,0,1.754.278c.719,0,1.548-.087,1.671-.278a12.539,12.539,0,0,0,0-2.6,11.775,11.775,0,0,1,0-2.582,5.95,5.95,0,0,1,1.982-.183,9.476,9.476,0,0,1,2.4.183,9.858,9.858,0,0,1-.007,2.386,11.029,11.029,0,0,0,.007,2.791c.095.11.508.73,1.031,1.515l0,0a37.363,37.363,0,0,0,2.609,3.688,15.439,15.439,0,0,0,2.567.123,18.78,18.78,0,0,0,2.836-.123,9.363,9.363,0,0,0-.011-2.257V144.6a11.46,11.46,0,0,1,.012-2.943c.057-.064.3-.1.737-.1.547,0,1.336.049,2.1.1h.037c.762.048,1.55.1,2.094.1.442,0,.677-.033.718-.1a29.144,29.144,0,0,0,.548-3.158,27.45,27.45,0,0,1,.545-3.132c.043-.058.249-.086.631-.086s.934.03,1.495.065l.119.007c.465.028.946.057,1.253.057.213,0,.329-.014.353-.043.038-.044.509-.437,1.161-.981,2.068-1.725,5.917-4.934,6.067-5.4a16.135,16.135,0,0,0-.027-2.689v-.017a13.027,13.027,0,0,1,.028-3.389,6.168,6.168,0,0,1,2.581-.382c1.037,0,1.7.139,1.813.382a15.287,15.287,0,0,1,.017,3.39v.006a15.1,15.1,0,0,0-.017,2.7c.086.232.788.37,1.876.37a5.19,5.19,0,0,0,2.4-.37c.09-.116.333-.555.642-1.11l.009-.016c.777-1.4,2.077-3.736,2.492-3.736h.01c.348.034,1.619,1.753,2.64,3.134a18.522,18.522,0,0,0,1.349,1.727,7.449,7.449,0,0,0,2.7.265,15.183,15.183,0,0,0,3.466-.265c.265-.147.135-1.167.009-2.153-.121-.953-.235-1.85-.009-1.967a1.836,1.836,0,0,1,.683-.078,16.477,16.477,0,0,1,3.392.4c.3.12.166,2.254.06,3.969a13.3,13.3,0,0,0-.06,2.174c.089.231,1.411.337,2.6.337s2.454-.1,2.565-.337c.042-.09.293-.744.674-1.734l.01-.025c1.593-4.152,5.324-13.877,5.987-14.17a.115.115,0,0,1,.047-.01c.472,0,1.346,2.757,2.191,5.423.684,2.156,1.329,4.193,1.655,4.374a.166.166,0,0,0,.082.021c.4,0,1.071-1.274,1.727-2.578l.2-.4c.562-1.121,1.091-2.18,1.328-2.18.275,0,.63,1.185,1.006,2.439a7.726,7.726,0,0,0,1.075,2.7,29.14,29.14,0,0,0,4.572.494h.01c2.665.2,5.42.4,5.788.685.539.415,1.155,3.021,1.451,4.274l0,.007,0,.009c.079.334.135.575.166.673.074.235,1.49.271,2.327.271a18.322,18.322,0,0,0,3.847-.271,12.945,12.945,0,0,0-.012-2.248,12.1,12.1,0,0,1,.012-2.715.9.9,0,0,1,.292-.024c.359,0,1.008.034,1.759.073h.023l.443.023c.98.051,1.993.1,2.764.1.849,0,1.275-.056,1.3-.172.1-.475.383-8.284,0-8.7a2.633,2.633,0,0,0-.492-.372c-.423-.275-.858-.558-.755-1.04.146-.684,1.2-.85,1.246-.857l.005-.03c.211-1.119,2.074-10.928,2.625-10.928h.007c.387.059,1.719,4.539,2.691,7.81.48,1.616.86,2.893.981,3.147.031.064.071.1.119.1.244,0,.685-.8,1.074-1.51l.027-.049c.414-.754.8-1.464,1.019-1.464a.088.088,0,0,1,.055.019,13.752,13.752,0,0,1,1.162,2.7l0,.007a11.789,11.789,0,0,0,1.065,2.474.055.055,0,0,0,.024.005c.174,0,.622-.672,1.141-1.451l.177-.265c.556-.83,1.174-1.715,1.472-1.715a.127.127,0,0,1,.082.029,23.97,23.97,0,0,1,1.27,4.586l0,.01a23.659,23.659,0,0,0,1.087,4.019,7.93,7.93,0,0,0,2.242.137c1.448,0,3.329-.045,5.459-.1l.4-.01h.018c1.784-.045,3.469-.087,4.556-.087a6.091,6.091,0,0,1,1.223.058c.341.147.2,1.177.07,2.085a3.709,3.709,0,0,0-.07,1.4,6.488,6.488,0,0,0,2.943.5,2.573,2.573,0,0,0,1.583-.309.242.242,0,0,0,.071-.187c-.025-.372-.036-5.507-.031-13.737,0-6.892.019-13.34.031-13.8.017-.6.764-.775,1.31-.906.328-.079.587-.141.595-.265.023-.364.064-8.484,0-9.13-.029-.292-.4-.33-.711-.33-.089,0-.182,0-.263.006h-.008c-.073,0-.156.005-.228.005-.136,0-.28-.009-.315-.074-.018-.033-.009-.077.028-.135.112-.179.454-1.263.886-2.634l0-.007c.724-2.3,1.715-5.441,2.023-5.461.347,0,1.083,3.647,1.57,6.06.2,1.005.363,1.8.436,2.041.051.169.055.278.013.334a.148.148,0,0,1-.129.049,1.1,1.1,0,0,1-.2-.028l-.013,0a1.19,1.19,0,0,0-.228-.031.227.227,0,0,0-.254.2,34.947,34.947,0,0,0,0,5.7c.061.141.374.213.928.213a17.261,17.261,0,0,0,2.289-.208l.036-.005c.024,0,.046-.027.067-.072a18.83,18.83,0,0,0-.067-5.325c-.039-.062-.119-.092-.245-.092a2.717,2.717,0,0,0-.482.07,2.773,2.773,0,0,1-.49.071.28.28,0,0,1-.239-.082.3.3,0,0,1-.01-.269c.216-.741,2.558-6.7,3.149-6.729.59,0,2.186,6.209,2.266,6.729a.184.184,0,0,1-.035.154.389.389,0,0,1-.3.088,4.227,4.227,0,0,1-1.095-.242v4.422c.008,0,1.319.15,2.227.15.527,0,.807-.051.834-.15a26.863,26.863,0,0,0,0-4.949.178.178,0,0,0-.168-.1.817.817,0,0,0-.36.14l-.053.031a.661.661,0,0,1-.233.109.039.039,0,0,1-.034-.015c-.018-.023-.015-.076.01-.161.205-.714,1.765-5.751,2.235-5.835h.011a.144.144,0,0,1,.1.054c.562.576,1.821,5.528,1.815,5.782,0,.091-.109.138-.319.138a4.672,4.672,0,0,1-.9-.138c0,.045-.286,4.659,0,4.949a3.7,3.7,0,0,0,1.653.256c.744,0,1.245-.1,1.343-.256.012-.192.281-4.71,0-4.949a.25.25,0,0,0-.17-.054,1.187,1.187,0,0,0-.4.105l-.058.023a.915.915,0,0,1-.263.082.056.056,0,0,1-.05-.02c-.017-.024-.012-.068.013-.137.039-.1.159-.581.326-1.242l.006-.022c.558-2.211,1.72-6.811,2.206-6.837.534,0,1.361,5.363,1.673,7.382l.011.072c.053.345.089.573.1.648a.155.155,0,0,1-.02.133.222.222,0,0,1-.177.054,2.37,2.37,0,0,1-.335-.038l-.026,0a2.675,2.675,0,0,0-.4-.042c-.222,0-.352.064-.409.2a42.383,42.383,0,0,0-.419,4.645c0,.054-.07,5.355,0,5.879.013.1.077.144.2.144a2.264,2.264,0,0,0,.606-.155l.032-.011a2.459,2.459,0,0,1,.675-.166c.158,0,.25.062.279.189.06.262.022,2.627-.023,5.365v.07c-.06,3.71-.129,7.916.024,8.225.132.266,2.033.386,3.859.386,1.951,0,3.956-.133,4.012-.386.04-.182.008-2.135-.034-4.607v-.032c-.068-4.065-.161-9.626.034-10.191.072-.208.155-.309.255-.309s.2.1.292.212l.044.054c.069.085.129.159.171.159s.048-.037.058-.116c.05-.423.182-7.907,0-8.449-.032-.1-.146-.143-.349-.143a5.594,5.594,0,0,0-.988.153l-.015,0a5.386,5.386,0,0,1-.947.149.367.367,0,0,1-.259-.067.131.131,0,0,1-.037-.1,51.5,51.5,0,0,1,1.718-5.136c1.1-2.959,1.883-4.726,2.1-4.726.4.013,1.979,6.024,2.655,8.591l.035.133c.168.638.28,1.06.307,1.139a.1.1,0,0,1,0,.09c-.016.024-.051.035-.106.035a2.3,2.3,0,0,1-.474-.1l-.035-.009a2.513,2.513,0,0,0-.56-.1c-.111,0-.181.028-.212.084a34.025,34.025,0,0,0,0,6.195c.078.168.575.265,1.365.265a5.392,5.392,0,0,0,2.02-.265c.195-.246,0-6.135,0-6.195,0-.035-.045-.052-.135-.052a3.551,3.551,0,0,0-.509.066l-.018,0a3.383,3.383,0,0,1-.465.063c-.055,0-.085-.008-.093-.025s0-.031.022-.055c.08-.091.426-1.053.864-2.27l0-.01c.777-2.159,1.841-5.115,2.116-5.13.432,0,1.944,6.531,2.031,7.078a.151.151,0,0,1-.03.128c-.055.064-.18.094-.393.094-.114,0-.246-.008-.352-.015s-.243-.015-.352-.015c-.252,0-.374.043-.4.14a30.778,30.778,0,0,0,0,5.018c.075.135.542.216,1.251.216a4.226,4.226,0,0,0,1.61-.216c.236-.193.1-3.28.028-4.764-.02-.435-.031-.683-.028-.735a.051.051,0,0,0-.012-.039.067.067,0,0,0-.05-.016,1.149,1.149,0,0,0-.33.107l-.016.007a1.106,1.106,0,0,1-.3.1c-.018,0-.03-.005-.036-.015s.008-.07.06-.144a19.51,19.51,0,0,0,.773-2.152c.65-1.965,1.459-4.41,1.8-4.41h.006c.291.028.918,2.033,1.266,3.226.476,1.631.872,3.237.865,3.336,0,.041-.07.061-.2.061a5.82,5.82,0,0,1-.6-.053l-.02,0h-.01a5.541,5.541,0,0,0-.553-.049c-.107,0-.163.015-.173.044-.027.083-.1,1.378-.125,2.7a11.8,11.8,0,0,0,.125,2.8,2.717,2.717,0,0,0,1.363.2,4.2,4.2,0,0,0,1.607-.2,15.98,15.98,0,0,0,.1-2.674,24.915,24.915,0,0,0-.1-2.723c-.027-.07-.1-.1-.222-.1a1.641,1.641,0,0,0-.295.038l-.037.007-.008,0a1.227,1.227,0,0,1-.2.029c-.031,0-.05-.006-.057-.018s0-.031.012-.056c.036-.061.2-.786.43-1.791v-.006c.656-2.887,1.877-8.259,2.4-8.309h.008a.131.131,0,0,1,.091.05c.659.7,1.467,9.151,1.436,9.638-.007.109-.07.158-.2.158a1.656,1.656,0,0,1-.254-.03l-.018,0a1.943,1.943,0,0,0-.3-.032.4.4,0,0,0-.332.126,29.444,29.444,0,0,0,.059,4.615c.137,2.311.331,4.541.424,4.87a.235.235,0,0,0,.258.176,2.256,2.256,0,0,0,.749-.234l.045-.02a2.11,2.11,0,0,1,.646-.214.151.151,0,0,1,.128.049.29.29,0,0,1,.014.242c-.1.44-.224,7.96-.256,16.093-.015,3.628-.039,15.511.256,16.085.2.379,4.181.459,7.489.459,6.49,0,15.351-.307,15.81-.459.337-.111.913-1.583,1.47-3.007.591-1.51,1.2-3.067,1.543-3.067l.021,0c.378.074,1.219,2.509,1.962,4.657l0,.007a18.594,18.594,0,0,0,1.209,3.111,6.234,6.234,0,0,0,2.792.529c.991,0,1.64-.188,1.827-.529.285-.52.156-2.686.042-4.6a15.6,15.6,0,0,1-.042-3.178c.051-.132.177-.2.384-.2a4.4,4.4,0,0,1,1.106.253,4.478,4.478,0,0,0,1.108.254c.255,0,.385-.1.4-.309.019-.3-.008-1.838-.045-3.969v-.018c-.086-4.967-.217-12.473.045-14.025.057-.338.149-.5.282-.5.271,0,.666.693,1.047,1.364l.005.009c.38.667.771,1.356,1.032,1.356.117,0,.2-.134.254-.409.188-.957.093-5.238-.008-9.77v-.018c-.109-4.92-.222-10.008.008-11.49.062-.4.163-.591.311-.591.3,0,.762.837,1.246,1.724l.116.213c.56,1.021,1.1,1.937,1.529,1.937.219,0,.388-.235.518-.718.259-.967.875-5.2,1.656-10.569l.008-.053c1.792-12.321,4.5-30.942,5.926-31.026h.01c.469,0,1.024,2.071,1.647,6.155.5,3.3,1.055,7.92,1.637,13.73.988,9.856,1.772,20.259,1.875,21.763.021.3.082.452.188.452.261,0,.753-.924,1.274-1.9l.113-.212c.6-1.113,1.159-2.113,1.518-2.113.182,0,.295.255.344.779.175,1.856.09,7.705.015,12.866-.063,4.333-.117,8.076-.015,8.843.024.181.068.27.135.27.165,0,.447-.54.774-1.166l.008-.015c.06-.116.122-.235.185-.353.424-.8.868-1.534,1.242-1.534.249,0,.438.321.577.981.566,2.691.251,9.733.081,13.517v.02c-.048,1.072-.083,1.846-.08,2.16,0,.25.057.372.17.372.14,0,.349-.177.59-.383l.09-.076a1.591,1.591,0,0,1,.814-.458c.219,0,.37.178.461.545a19.782,19.782,0,0,1,.017,4.586v.006a10.932,10.932,0,0,0-.017,2.752c.1.2.593.315,1.4.315,1.34,0,3.247-.315,3.437-.649a12.051,12.051,0,0,0-.048-2.769v-.01c-.12-1.828-.256-3.9.049-4.23.1-.109.347-.161.758-.161a19.07,19.07,0,0,1,1.987.175h.02a19.192,19.192,0,0,0,2.01.175c.455,0,.72-.063.811-.191.133-.19.517-.878,1-1.75,1.161-2.085,2.916-5.235,3.3-5.251.352,0,1.792,2.123,2.949,3.828l.01.015a21.326,21.326,0,0,0,1.38,1.932,3,3,0,0,0,1.559.331c.624,0,1.028-.124,1.081-.331.045-.182,0-1.667-.05-3.547-.091-3.226-.216-7.645.05-7.93a12.814,12.814,0,0,1,3.993-.381c1.506,0,3.19.1,3.4.381a6.6,6.6,0,0,1,.039,2.656v.008a6.634,6.634,0,0,0-.038,1.8c.051.115.361.172.95.172.355,0,.8-.02,1.455-.063-.1-5.9-.129-10.491-.086-13.651a7.22,7.22,0,0,0-2.976-.841,2.2,2.2,0,0,0-2.138,1.25c-.031.061-.061.092-.088.092s-.039-.017-.056-.051a11.561,11.561,0,0,1-.132-2.82,11.146,11.146,0,0,1,.276-2.695,2.4,2.4,0,0,1,1.357-.4,5.6,5.6,0,0,1,2,.5l.13.051a4.865,4.865,0,0,0,1.622.447,1.433,1.433,0,0,0,.218-.016,2.018,2.018,0,0,1,.071-.33c.234-.689.543-1.053.9-1.053.461,0,.889.614.994,1.053s.525,10.138.478,18.3c.178-.007.323-.01.443-.01a1.764,1.764,0,0,1,.645.071c.342.173.191,1.208.059,2.122a3.537,3.537,0,0,0-.059,1.61,5.635,5.635,0,0,0,2.525.293,10.271,10.271,0,0,0,3.1-.293c.285-.306.327-7.371.049-8.129-.016-.043-.032-.065-.05-.067l-.091-.01c-1.719-.185-2.59-.513-2.59-.977,0-.74,2.655-1.994,2.681-2.006a11.425,11.425,0,0,1,.622-3.067,5.591,5.591,0,0,1,1.284-2.109,3.308,3.308,0,0,1,2.382-.959c.114,0,.232.005.351.015l.059,0c.454,0,.487-.475.526-1.025.049-.7.105-1.5,1.041-1.566.04,0,.079,0,.117,0a.6.6,0,0,1,.45.145c.165.169.159.46.151.8-.015.7-.034,1.563,1.6,1.65,1.706.091,2.367,2.212,2.9,3.915.366,1.175.682,2.188,1.243,2.2a1.8,1.8,0,0,1,1.885,1.718c.1.741-1.459,1.27-1.475,1.275v5.7h3.839l.008-.009c.826-.867,8.1-8.48,9.17-8.687a.223.223,0,0,1,.042,0c1.233,0,10.323,8.3,12.062,9.938a2.347,2.347,0,0,0,1.558.564,1.434,1.434,0,0,0,1.27-.564,4.257,4.257,0,0,0-.1-2.162c-.2-1.143-.414-2.323.1-2.512a14.2,14.2,0,0,1,3.428-.314,6.021,6.021,0,0,1,2.534.314c.345.258.185,1.732.031,3.158-.14,1.291-.272,2.509-.031,2.772a4.3,4.3,0,0,0,2.4.555c.927,0,1.561-.2,1.738-.555.336-.669,3.5-4.445,5.389-6.7l.018-.021c.638-.762,1.1-1.312,1.224-1.473a1.678,1.678,0,0,0,.176-1.141c-.03-.43-.058-.835.262-.968a3.087,3.087,0,0,1,1.123-.224,1.2,1.2,0,0,1,.787.224c.36.333.228,2.036.222,2.109.039.086,3.89,8.657,4.86,8.908a.793.793,0,0,0,.172.013c1.135,0,7.087-.832,13.268-1.854,7.254-1.2,11.924-2.173,12.49-2.6.752-.568.391-2.058.073-3.372-.262-1.084-.489-2.019-.073-2.268a5.991,5.991,0,0,1,2.422-.3,34.107,34.107,0,0,1,4.385.3.475.475,0,0,1,.345.208c.24.369.029,1.161-.194,2-.267,1-.544,2.042-.151,2.591.351.49,1.637.593,2.655.593a16.324,16.324,0,0,0,4.694-.593c.175-.143.065-.819-.051-1.536-.145-.9-.309-1.91.051-2.087a12.534,12.534,0,0,1,3.3-.33,4.248,4.248,0,0,1,2.239.33c.211.247.075,1.71-.07,3.258l0,.007h0c-.153,1.645-.312,3.347-.048,3.636a.119.119,0,0,0,.089.043.143.143,0,0,0,.029,0c.394-.088,5.766-2.443,10.845-4.755,3.1-1.41,10.327-4.736,10.566-5.179.2-.362.1-4.381-.007-8.636-.1-4.3-.213-8.746.007-9.115.081-.137.4-.2.968-.2.734,0,1.8.11,2.822.217l.017,0h.008c1.02.105,2.074.215,2.8.215.6,0,.924-.075.976-.231.129-.381.064-3.837-.005-7.5v-.019c-.069-3.685-.141-7.5.005-7.855a13.991,13.991,0,0,1,1.969-2.048c1.459-1.387,3.112-2.958,3.09-3.48-.031-.765-.344-12.491,0-13.19.133-.27.681-.425,1.5-.425a4.556,4.556,0,0,1,2.183.425c0,.042-.355,4.193.02,4.511a9.171,9.171,0,0,0,3.048.4,2.631,2.631,0,0,0,1.327-.193c.272-.259.144-2.092.05-3.43v-.007a8.063,8.063,0,0,1-.049-1.279,4.879,4.879,0,0,1,1.627-.146,6.833,6.833,0,0,1,1.9.146c.03.069.009,2.2-.016,4.663-.037,3.726-.083,8.36.016,8.527a8.086,8.086,0,0,0,2.484.2,8.683,8.683,0,0,0,2.551-.2c.077-.136.039-4.175,0-8.08v-.026c-.036-3.873-.071-7.53,0-7.643a9.871,9.871,0,0,1,2.491-.165,10.948,10.948,0,0,1,2.608.165,14.124,14.124,0,0,1-.017,1.8v.01a14.123,14.123,0,0,0,.018,2.777,8.108,8.108,0,0,0,2.379.316c.51,0,1.146-.055,1.282-.316a5.2,5.2,0,0,0-.054-1.9c-.129-1.088-.274-2.321.054-2.684a1.015,1.015,0,0,1,.777-.251,6.926,6.926,0,0,1,2.6.735c.4.206.392,1.258.381,2.276-.009.833-.017,1.62.214,1.827a3.322,3.322,0,0,0,1.815.549c.551,0,.859-.195.868-.549.006-.226-.019-1.164-.053-2.463v-.059c-.116-4.375-.331-12.518.054-13.273.123-.241,1.035-.359,2.788-.359,1.711,0,4,.114,6.014.221l.681.036c1.852.1,3.451.184,4.425.184a2.477,2.477,0,0,0,.91-.082c.273-.208.136-1.18-.008-2.209-.149-1.062-.3-2.157.008-2.417a6.433,6.433,0,0,1,2.746-.41,5.133,5.133,0,0,1,2.505.41c.335.322.178,1.584.039,2.7-.112.9-.217,1.745-.039,1.929a4.888,4.888,0,0,0,2.316.431c.875,0,1.42-.157,1.5-.431.1-.376.182-3.15.2-5.616a34.291,34.291,0,0,0-.2-5.451c-.062-.094-.233-.14-.521-.14a11.013,11.013,0,0,0-1.387.148,11.076,11.076,0,0,1-1.382.148c-.3,0-.472-.051-.521-.156a37.043,37.043,0,0,1-.2-4.948,31.607,31.607,0,0,1,.2-4.88c.3-.478,3.154-4.464,3.779-4.464a.119.119,0,0,1,.033,0c.55.156,2.342,4.006,2.489,4.46.071.22.038,2.094.006,3.906-.028,1.6-.055,3.1-.006,3.29.058.219,1.325.243,1.867.243a11.38,11.38,0,0,0,2.837-.243,7.162,7.162,0,0,0,.021-2.479,6.808,6.808,0,0,1-.021-1.852,18.139,18.139,0,0,1,3.82-.3c1.294,0,2.043.106,2.111.3a22.643,22.643,0,0,1-.018,3.193v.01a18.852,18.852,0,0,0,.019,3.76,28.4,28.4,0,0,0,5.141.28c2.271,0,3.685-.1,3.783-.28a35.839,35.839,0,0,0,.124-4.6c-.021-2.1-.082-4.335-.124-4.516-.035-.149-.212-.18-.457-.223a2.086,2.086,0,0,1-1.144-.493,2.16,2.16,0,0,1-.606-1.828,1.427,1.427,0,0,1,.868-1.118,15.421,15.421,0,0,1,3.932-.324,89.788,89.788,0,0,1-.086-9.694,6.61,6.61,0,0,0-2.782-.807,2.205,2.205,0,0,0-2.163,1.379c-.031.067-.061.1-.088.1s-.035-.015-.051-.044a13.194,13.194,0,0,1-.14-3.093,13.484,13.484,0,0,1,.279-3,2.193,2.193,0,0,1,1.3-.449,4.131,4.131,0,0,1,1.408.335l.021.007a4.355,4.355,0,0,0,1.475.343,2.369,2.369,0,0,0,1.027-.237l.006,0c.02-.221.035-.361.046-.44A.757.757,0,0,1,1523.6,0a.9.9,0,0,1,.9.739c.058.62.024,11.135.006,15.627a35.725,35.725,0,0,1,4.523.3.729.729,0,0,1,.5.591,2.8,2.8,0,0,1-.74,2.355.72.72,0,0,1-.478.221.808.808,0,0,1-.472-.2l-.035-.026-.017-.013a.6.6,0,0,0-.307-.161c-.082,0-.151.057-.217.18-.364.674-.364,6.592,0,7.2.138.23,1.235.361,3.01.361a20.527,20.527,0,0,0,4.627-.361,21.986,21.986,0,0,0,1.681-2.3c1.429-2.065,3.385-4.894,3.884-4.9.565,0,2.626,3.507,3.858,5.6.5.854.864,1.47.971,1.594a4.937,4.937,0,0,0,1.813.148c1.221,0,2.942-.057,4.325-.1h.013l.222-.007c1.479-.05,2.877-.1,3.81-.1a5.084,5.084,0,0,1,1.07.06,7.7,7.7,0,0,1,1.68,2.088c.792,1.166,1.609,2.37,2.013,2.37a.17.17,0,0,0,.124-.052c.268-.269.109-1.549-.058-2.9-.205-1.66-.438-3.541.058-3.977a4.02,4.02,0,0,1,2.327-.46,10.184,10.184,0,0,1,3.316.46c.391.207.205,2.359.025,4.44v.005h0c-.175,2.031-.341,3.949-.025,4.261.332.327,2.155.444,3.75.444,1.831,0,3.88-.152,4.253-.444.347-.272.174-1.4.008-2.485s-.335-2.19-.008-2.488a3.894,3.894,0,0,1,2.079-.361c1.315,0,2.845.217,3.091.62a7.468,7.468,0,0,1-.165,2.51c-.291,2.065-.654,4.635.165,5.045a11.2,11.2,0,0,0,2.771.167c2.282,0,5.6-.1,9.123-.212l.372-.011h.04c3.364-.1,7.176-.222,9.911-.222,2.4,0,3.66.091,3.865.279.625.574.335,5.027.124,8.278a25.373,25.373,0,0,0-.124,3.409c.116.46,2.467.623,4.446.623,2.338,0,4.933-.214,5.37-.623.421-.393.221-1.978.027-3.51-.188-1.492-.384-3.035-.027-3.552.3-.437,1.347-.7,2.8-.7,1.325,0,2.9.245,3.2.7.273.406.139,2.041.009,3.623v.005a10.069,10.069,0,0,0-.009,3.433c.184.291,2.559.459,6.516.459,4.694,0,9.729-.227,10.166-.459.472-.249.257-2.622.085-4.529v-.007h0a9.235,9.235,0,0,1-.085-2.525c.063-.08.24-.119.539-.119a13.578,13.578,0,0,1,1.372.116h.01a13.636,13.636,0,0,0,1.382.118c.295,0,.469-.038.534-.116a11.855,11.855,0,0,0-.049-3.017c-.135-1.973-.288-4.207.049-4.45a8.257,8.257,0,0,1,2.818-.3,10.263,10.263,0,0,1,3.083.3c.315.213.176,1.77.054,3.144a7.179,7.179,0,0,0-.054,2.1c.109.174.693.274,1.6.274a6.637,6.637,0,0,0,2.244-.274,1.988,1.988,0,0,0,.325-.9c.239-1,.565-2.364,1.677-2.4.157,0,.407-.007.766-.007.893,0,2.287.014,3.9.03h.035l.636.006c1.774.018,3.8.036,5.394.036,1.714,0,2.655-.022,2.875-.066a.245.245,0,0,0,.164-.113c.171-.269.006-.943-.169-1.658-.222-.908-.45-1.844,0-2a36.1,36.1,0,0,1,5.475-.268,22.739,22.739,0,0,1,4.577.268c.427.217.239,1.17.056,2.092-.151.761-.292,1.48-.056,1.682a3.375,3.375,0,0,0,1.744.3,4.637,4.637,0,0,0,1.985-.3c.18-.148.06-.85-.066-1.593-.163-.956-.348-2.04.066-2.182a27.881,27.881,0,0,1,4.824-.369c1.057,0,2.348.064,2.5.369a5.81,5.81,0,0,1,0,2.16,3.855,3.855,0,0,0,0,1.615,3.768,3.768,0,0,0,1.758.282c.806,0,1.368-.105,1.505-.282a4.287,4.287,0,0,0-.036-1.792c-.109-.931-.222-1.891.036-1.983a18.805,18.805,0,0,1,3.16-.21,4.91,4.91,0,0,1,1.965.21c.212.179.105,1.706-.007,3.323-.119,1.706-.242,3.469.007,3.745a7.27,7.27,0,0,0,2.755.311,25.96,25.96,0,0,0,4.508-.311c.431-.147.228-1.06.049-1.866-.151-.68-.294-1.322-.049-1.428a11.394,11.394,0,0,1,2.717-.256,3.912,3.912,0,0,1,1.773.256c.207.217.108,2.247,0,4.4v.005h0a21.047,21.047,0,0,0,0,4.606c.065.1.266.151.613.151a18.1,18.1,0,0,0,2.1-.221l.013,0,.185-.026a20.11,20.11,0,0,1,2.533-.25c.678,0,1.064.114,1.18.348.293.589.157,5.577.038,9.977V54a58.306,58.306,0,0,0-.037,6.389c.059.09.316.134.788.134.6,0,1.438-.069,2.25-.135l.038,0c.8-.065,1.622-.131,2.177-.131.454,0,.688.044.718.135.065.2.182,1.769.317,3.587l0,.022a48.223,48.223,0,0,0,.513,5.265c.12.1,2.695.348,5.184.584l.018,0c2.126.2,4.134.392,4.221.463a10.975,10.975,0,0,1-.005,2.235,10.157,10.157,0,0,0,.005,2.384c.106.041,2.267.056,4.085.056,2.288,0,4.7-.021,4.769-.056.008,0,.015-.019.022-.045a21.982,21.982,0,0,0-.022-3.476,1.864,1.864,0,0,0-.6-.058c-.541-.017-1.279-.041-1.4-.237a.122.122,0,0,1,0-.12c.2-.442,4.508-2.1,4.79-2.1.243,0,4.381,1.655,4.667,2.1a.111.111,0,0,1,.014.111c-.081.176-.684.256-1.267.335-.56.075-1.089.146-1.1.295-.009.1-.218,10.877,0,11.075a1.12,1.12,0,0,0,.429.039c.437,0,1.191-.038,1.92-.074l.245-.012c.883-.043,1.8-.085,2.5-.085s1.094.043,1.168.131a8.881,8.881,0,0,1-.018,2.561c-.091,1.285-.185,2.612.018,2.68a3.317,3.317,0,0,0,.635.031c.548,0,1.365-.022,2.229-.046l.144,0c1.008-.027,1.9-.05,2.58-.05a4.206,4.206,0,0,1,1.109.069,11.893,11.893,0,0,1,.006,3.2,11.552,11.552,0,0,0-.006,3,.235.235,0,0,0,.1.014c1.081,0,10-1.861,10.086-1.88.059-.036,6-3.63,10.21-3.63a8.087,8.087,0,0,1,5.127,2.012,11.408,11.408,0,0,1,1.938,2.011l.165-.065c3.306-1.3,11.118-4.36,12.241-4.667a1.1,1.1,0,0,1,.286-.034,13.135,13.135,0,0,1,4.085,1.557,15.009,15.009,0,0,0,2.7,1.154,4.5,4.5,0,0,0,.8.048c.475,0,1.115-.024,1.793-.049l.4-.015c.915-.033,1.9-.063,2.929-.063,4.3,0,7.09.57,8.537,1.741,1.766,1.43,7.624,7.054,12.793,12.017l.008.007.005.005c4.705,4.518,9.15,8.785,9.9,9.306a5.578,5.578,0,0,0,2.764.555,14.8,14.8,0,0,1,7.041,1.817,19.922,19.922,0,0,1,6.2,6.253l0,0h0a11.455,11.455,0,0,0,2.2,2.592,3.175,3.175,0,0,0,1.84.472,12.8,12.8,0,0,0,2.251-.272l.149-.027a11.148,11.148,0,0,1,1.854-.244,2.172,2.172,0,0,1,.594.07,4.228,4.228,0,0,1,1.7,1.028,3.993,3.993,0,0,0,1.553.962,3.04,3.04,0,0,0,.831.09c.565,0,1.261-.075,2-.155l.139-.015a22.489,22.489,0,0,1,2.376-.17,4.93,4.93,0,0,1,1.749.25,21.7,21.7,0,0,1,4.484,3.172c.9.738,1.74,1.434,2.342,1.823,1.047.678,3.491.8,5.455.894h.005a15.372,15.372,0,0,1,2.474.226,7.947,7.947,0,0,1,1.852.986,5.705,5.705,0,0,0,2.393,1.11.889.889,0,0,0,.308-.051,6.727,6.727,0,0,0,1.69-1.411c.884-.882,1.8-1.791,2.456-1.791a.6.6,0,0,1,.216.038,13.109,13.109,0,0,1,2.656,2.715c1.116,1.316,2.269,2.677,2.707,2.677a.179.179,0,0,0,.046-.006,3.662,3.662,0,0,0,.484-.6c.775-1.034,2.381-3.179,3.432-3.179h.023c.448.014,1.035.869,1.656,1.774a6,6,0,0,0,1.771,2,10.2,10.2,0,0,0,3.828.707,10.022,10.022,0,0,0,2.017-.189V288ZM598.751,158.066c-.437,0-1.2.076-1.378.586a85.62,85.62,0,0,0-.23,8.67c.006,3.951.087,8.064.23,8.28a3.183,3.183,0,0,0,1.891.481c.4,0,1.064-.063,1.1-.481.034-.4.112-4.5.142-8.806.022-3.066.032-8.234-.142-8.393A3.417,3.417,0,0,0,598.751,158.066Zm-14.3-.191c-.7,0-1.153.1-1.212.254-.076.2-.144,4.618-.159,8.618-.015,4.045.019,8.495.159,8.853s.8.407,1.176.407c.754,0,1.6-.205,1.668-.407.06-.172.135-4.35.157-8.764.012-2.561.02-8.537-.157-8.707A3.736,3.736,0,0,0,584.449,157.876Zm6.724-.114c-.614,0-1.377.064-1.529.366a84.85,84.85,0,0,0-.268,8.825c-.007,4.15.073,8.433.268,8.647a7.461,7.461,0,0,0,4.137,0c.089-.172.2-4.35.228-8.764.015-2,.041-8.53-.228-8.708A7.954,7.954,0,0,0,591.173,157.762Zm-11.937.114c-.527,0-.869.1-.915.254-.059.206-.106,4.688-.116,8.724-.011,4.087.014,8.532.116,8.748s.63.292,1.049.292c.506,0,1.045-.1,1.1-.292.046-.175.1-4.352.118-8.764.007-2,.021-8.53-.118-8.707A2.213,2.213,0,0,0,579.236,157.876Zm-6.007,0c-.777,0-1.281.095-1.347.254-.087.207-.158,4.69-.173,8.724-.016,4.088.021,8.532.173,8.748s.927.292,1.546.292c.746,0,1.541-.1,1.616-.292.066-.169.149-4.346.174-8.764.011-2,.031-8.53-.174-8.707A4.577,4.577,0,0,0,573.23,157.876Zm45.9,1.623c-.545,0-1.493.07-1.717.54a57.754,57.754,0,0,0-.282,7.887,57.267,57.267,0,0,0,.282,7.53,4.939,4.939,0,0,0,2.314.437c.484,0,1.3-.057,1.346-.437.042-.359.137-4.093.174-8.017.027-2.792.04-7.5-.174-7.643a5.247,5.247,0,0,0-1.941-.3Zm-6.824,0c-.545,0-1.494.07-1.718.54a57.754,57.754,0,0,0-.282,7.887,57.278,57.278,0,0,0,.282,7.53,4.944,4.944,0,0,0,2.315.437c.484,0,1.3-.057,1.345-.437.041-.357.136-4.09.174-8.017.027-2.792.04-7.5-.174-7.643a5.246,5.246,0,0,0-1.941-.3Zm-7.192-.953c-.446,0-1.222.074-1.4.571a79.342,79.342,0,0,0-.229,8.345,78.336,78.336,0,0,0,.229,7.968,3.271,3.271,0,0,0,1.89.463c.4,0,1.065-.06,1.1-.463.034-.384.112-4.336.142-8.483.022-2.954.032-7.934-.142-8.087A3.416,3.416,0,0,0,605.116,158.545Zm-38.534-.977c-1.185,0-2.471.2-2.571.545-.088.3-.2,4.523-.228,8.863-.015,1.977-.041,8.439.228,8.585a10.25,10.25,0,0,0,2.635.249c.992,0,1.6-.091,1.666-.249.09-.215.148-4.676.157-8.764.008-3.909-.028-8.58-.157-8.879C568.2,157.66,567.345,157.568,566.582,157.568Zm280.48-10.218a3.2,3.2,0,0,0-2.544,1.545,4.925,4.925,0,0,0-.37,1.758,25.86,25.86,0,0,0-.074,2.667,11.243,11.243,0,0,0,.444,3.8,5.023,5.023,0,0,0,2.22.327,5.659,5.659,0,0,0,2.32-.327c.349-.227.708-1.828.8-3.57a9.133,9.133,0,0,0-.8-4.948A2.353,2.353,0,0,0,847.062,147.35Zm-59.667-16.5a1.237,1.237,0,0,0-.9.44,4.542,4.542,0,0,0-.939,2.423,43.936,43.936,0,0,0-.406,5.807c-.015,2.194.133,3.659.406,4.02a3.178,3.178,0,0,0,2.237.635c.789,0,1.743-.167,2.054-.635a10.957,10.957,0,0,0,.445-4.064,34.828,34.828,0,0,0-.445-5.764,4.158,4.158,0,0,0-1.134-2.423,1.647,1.647,0,0,0-1.082-.441,1.026,1.026,0,0,0-.131.009.637.637,0,0,0-.105-.008Zm6.7,5.013c-.368,0-.742.391-1.146,1.2a10.666,10.666,0,0,0-.548,3.793,11.041,11.041,0,0,0,.227,2.864c.087.131.5.213,1.067.213.814,0,1.734-.172,1.834-.491a14.94,14.94,0,0,0,.218-2.8,9.294,9.294,0,0,0-.508-3.582C794.836,136.251,794.461,135.86,794.093,135.86Zm-12.772,0c-.368,0-.742.391-1.145,1.2a9.352,9.352,0,0,0-.55,3.642,8.248,8.248,0,0,0,.283,2.736,2.6,2.6,0,0,0,1.441.274c.658,0,1.353-.094,1.406-.274a18.435,18.435,0,0,0,.193-2.72,9.553,9.553,0,0,0-.482-3.659C782.064,136.251,781.689,135.86,781.321,135.86Z" transform="translate(0.3 462.002)" fill="#002344"/>
    </g>
    <g id="lights">
      <path id="Path_1038" data-name="Path 1038" d="M20778.836,20195.275a6.923,6.923,0,0,0,0,3.311,5.482,5.482,0,0,0,2.248,0c.277-.1.2-2.975,0-3.311S20779.119,20194.957,20778.836,20195.275Z" transform="translate(-19869 -19574.43)" fill="#f8d853"/>
      <path id="Path_1039" data-name="Path 1039" d="M20778.893,20195.34a8.77,8.77,0,0,0,0,4.2,6.968,6.968,0,0,0,2.85,0c.352-.121.25-3.771,0-4.2S20779.25,20194.939,20778.893,20195.34Z" transform="translate(-19856 -19568.43)" fill="#f8d853"/>
      <path id="Path_1040" data-name="Path 1040" d="M20778.762,20195.184a4.338,4.338,0,0,0,0,2.07,3.411,3.411,0,0,0,1.406,0,4.885,4.885,0,0,0,0-2.07C20780.043,20194.975,20778.939,20194.986,20778.762,20195.184Z" transform="translate(-19801 -19584.43)" fill="#f8d853"/>
      <path id="Path_1041" data-name="Path 1041" d="M20778.893,20195.34a8.77,8.77,0,0,0,0,4.2,6.968,6.968,0,0,0,2.85,0c.352-.121.25-3.771,0-4.2S20779.25,20194.939,20778.893,20195.34Z" transform="translate(-19663 -19591.43)" fill="#f8d853"/>
      <path id="Path_1042" data-name="Path 1042" d="M20778.8,20195.316a11.4,11.4,0,0,0,0,3.873c.209.25,1.619.111,1.846,0a12.836,12.836,0,0,0,0-3.873C20780.484,20194.924,20779.035,20194.945,20778.8,20195.316Z" transform="translate(-19655 -19586.43)" fill="#f8d853"/>
      <path id="Path_1043" data-name="Path 1043" d="M20778.8,20195.316a11.4,11.4,0,0,0,0,3.873c.209.25,1.619.111,1.846,0a12.836,12.836,0,0,0,0-3.873C20780.484,20194.924,20779.035,20194.945,20778.8,20195.316Z" transform="translate(-19649 -19586.43)" fill="#f8d853"/>
      <path id="Path_1044" data-name="Path 1044" d="M20778.762,20195.184a4.338,4.338,0,0,0,0,2.07,3.411,3.411,0,0,0,1.406,0,4.885,4.885,0,0,0,0-2.07C20780.043,20194.975,20778.939,20194.986,20778.762,20195.184Z" transform="translate(-19734 -19599.43)" fill="#f8d853"/>
      <path id="Path_1045" data-name="Path 1045" d="M20778.766,20195.186a4.361,4.361,0,0,0,0,2.1,3.462,3.462,0,0,0,1.424,0,4.928,4.928,0,0,0,0-2.1C20780.063,20194.973,20778.943,20194.984,20778.766,20195.186Z" transform="translate(-19714 -19566.1)" fill="#f8d853"/>
      <path id="Path_1046" data-name="Path 1046" d="M20778.8,20195.186a3.468,3.468,0,0,0,0,2.1,5.564,5.564,0,0,0,1.809,0c.223-.061.16-1.887,0-2.1A2.709,2.709,0,0,0,20778.8,20195.186Z" transform="translate(-19719.451 -19564.1)" fill="#f8d853"/>
      <path id="Path_1047" data-name="Path 1047" d="M20778.8,20195.186a3.468,3.468,0,0,0,0,2.1,5.564,5.564,0,0,0,1.809,0c.223-.061.16-1.887,0-2.1A2.709,2.709,0,0,0,20778.8,20195.186Z" transform="translate(-19561.451 -19597.1)" fill="#f8d853"/>
      <path id="Path_1048" data-name="Path 1048" d="M20778.8,20195.186a3.468,3.468,0,0,0,0,2.1,5.564,5.564,0,0,0,1.809,0c.223-.061.16-1.887,0-2.1A2.709,2.709,0,0,0,20778.8,20195.186Z" transform="translate(-19475.451 -19621.1)" fill="#f8d853"/>
      <path id="Path_1049" data-name="Path 1049" d="M20778.82,20195.254a6.289,6.289,0,0,0,0,3.008,5.024,5.024,0,0,0,2.041,0c.252-.088.18-2.7,0-3.008S20779.078,20194.965,20778.82,20195.254Z" transform="translate(-19459.002 -19593.43)" fill="#f8d853"/>
      <path id="Path_1050" data-name="Path 1050" d="M20778.758,20195.236a8.06,8.06,0,0,0,0,2.773c.148.18,1.158.08,1.32,0a9.142,9.142,0,0,0,0-2.773C20779.961,20194.955,20778.922,20194.971,20778.758,20195.236Z" transform="translate(-19453.27 -19589.85)" fill="#f8d853"/>
      <path id="Path_1051" data-name="Path 1051" d="M20778.758,20195.236a8.06,8.06,0,0,0,0,2.773c.148.18,1.158.08,1.32,0a9.142,9.142,0,0,0,0-2.773C20779.961,20194.955,20778.922,20194.971,20778.758,20195.236Z" transform="translate(-19448.973 -19589.85)" fill="#f8d853"/>
      <path id="Path_1052" data-name="Path 1052" d="M20778.82,20195.254a6.289,6.289,0,0,0,0,3.008,5.024,5.024,0,0,0,2.041,0c.252-.088.18-2.7,0-3.008S20779.078,20194.965,20778.82,20195.254Z" transform="translate(-19465.002 -19592.43)" fill="#f8d853"/>
      <path id="Path_1053" data-name="Path 1053" d="M20778.82,20195.254a6.289,6.289,0,0,0,0,3.008,5.024,5.024,0,0,0,2.041,0c.252-.088.18-2.7,0-3.008S20779.078,20194.965,20778.82,20195.254Z" transform="translate(-19515.002 -19561.43)" fill="#f8d853"/>
      <path id="Path_1054" data-name="Path 1054" d="M20778.91,20195.264c-.383.3-.344,2.945,0,3.148a10.644,10.644,0,0,0,3.051,0c.375-.092.27-2.83,0-3.148A5.108,5.108,0,0,0,20778.91,20195.264Z" transform="translate(-19524.182 -19566.43)" fill="#f8d853"/>
      <path id="Path_1055" data-name="Path 1055" d="M20778.91,20195.264c-.383.3-.344,2.945,0,3.148a10.644,10.644,0,0,0,3.051,0c.375-.092.27-2.83,0-3.148A5.108,5.108,0,0,0,20778.91,20195.264Z" transform="translate(-19141.182 -19596.43)" fill="#f8d853"/>
      <path id="Path_1056" data-name="Path 1056" d="M20778.91,20195.264c-.383.3-.344,2.945,0,3.148a10.644,10.644,0,0,0,3.051,0c.375-.092.27-2.83,0-3.148A5.108,5.108,0,0,0,20778.91,20195.264Z" transform="translate(-19130.182 -19603.43)" fill="#f8d853"/>
      <path id="Path_1057" data-name="Path 1057" d="M20780.172,20195.186a4.361,4.361,0,0,1,0,2.1,3.462,3.462,0,0,1-1.424,0,4.928,4.928,0,0,1,0-2.1C20778.875,20194.973,20779.994,20194.984,20780.172,20195.186Z" transform="translate(-19357.447 -19560.1)" fill="#f8d853"/>
      <path id="Path_1058" data-name="Path 1058" d="M20780.59,20195.186a3.468,3.468,0,0,1,0,2.1,5.564,5.564,0,0,1-1.809,0c-.223-.061-.16-1.887,0-2.1A2.709,2.709,0,0,1,20780.59,20195.186Z" transform="translate(-19352.449 -19558.1)" fill="#f8d853"/>
      <path id="Path_1059" data-name="Path 1059" d="M20780.172,20195.266a9.774,9.774,0,0,1,0,3.156c-.16.207-1.25.09-1.424,0a11.064,11.064,0,0,1,0-3.156C20778.875,20194.945,20779.994,20194.961,20780.172,20195.266Z" transform="translate(-19313.447 -19573.1)" fill="#f8d853"/>
      <path id="Path_1060" data-name="Path 1060" d="M20780.59,20195.186a3.468,3.468,0,0,1,0,2.1,5.564,5.564,0,0,1-1.809,0c-.223-.061-.16-1.887,0-2.1A2.709,2.709,0,0,1,20780.59,20195.186Z" transform="translate(-19339.449 -19562.1)" fill="#f8d853"/>
      <path id="Path_1061" data-name="Path 1061" d="M20778.82,20195.188a3.105,3.105,0,0,0,0,2.1,7.022,7.022,0,0,0,2.033,0c.25-.061.18-1.887,0-2.1A3.388,3.388,0,0,0,20778.82,20195.188Z" transform="translate(-19000.182 -19552.43)" fill="#f8d853"/>
      <path id="Path_1062" data-name="Path 1062" d="M20778.836,20195.275a6.923,6.923,0,0,0,0,3.311,5.482,5.482,0,0,0,2.248,0c.277-.1.2-2.975,0-3.311S20779.119,20194.957,20778.836,20195.275Z" transform="translate(-20070 -19530.43)" fill="#f8d853"/>
      <path id="Path_1063" data-name="Path 1063" d="M20778.781,20195.207a5,5,0,0,0,0,2.393,4,4,0,0,0,1.625,0,5.662,5.662,0,0,0,0-2.393C20780.262,20194.965,20778.984,20194.98,20778.781,20195.207Z" transform="translate(-20207 -19511.43)" fill="#f8d853"/>
      <path id="Path_1064" data-name="Path 1064" d="M20778.781,20195.207a5,5,0,0,0,0,2.393,4,4,0,0,0,1.625,0,5.662,5.662,0,0,0,0-2.393C20780.262,20194.965,20778.984,20194.98,20778.781,20195.207Z" transform="translate(-20565 -19512.43)" fill="#f8d853"/>
      <path id="Path_1065" data-name="Path 1065" d="M20778.781,20195.207a5,5,0,0,0,0,2.393,4,4,0,0,0,1.625,0,5.662,5.662,0,0,0,0-2.393C20780.262,20194.965,20778.984,20194.98,20778.781,20195.207Z" transform="translate(-20565 -19512.43)" fill="#f8d853"/>
      <path id="Path_1066" data-name="Path 1066" d="M20778.781,20195.207a5,5,0,0,0,0,2.393,4,4,0,0,0,1.625,0,5.662,5.662,0,0,0,0-2.393C20780.262,20194.965,20778.984,20194.98,20778.781,20195.207Z" transform="translate(-20547 -19508.43)" fill="#f8d853"/>
      <path id="Path_1067" data-name="Path 1067" d="M20778.771,20195.131a1.752,1.752,0,0,0,0,1.352,6.164,6.164,0,0,0,1.529,0c.188-.037.133-1.213,0-1.352A3,3,0,0,0,20778.771,20195.131Z" transform="translate(-20528 -19513.43)" fill="#f8d853"/>
      <path id="Path_1068" data-name="Path 1068" d="M20778.771,20195.131a1.752,1.752,0,0,0,0,1.352,6.164,6.164,0,0,0,1.529,0c.188-.037.133-1.213,0-1.352A3,3,0,0,0,20778.771,20195.131Z" transform="translate(-20459 -19504.43)" fill="#f8d853"/>
    </g>
    <g id="cloud-tr" transform="translate(1808.275 293.547)">
      <path id="Path_25" data-name="Path 25" d="M741.744,1341.611c10.812-10.322,8.361-18.812,22.2-28.5s12.143,2.571,33.169-10.25,30.689,0,30.689,0,4.919,16.688,12.275,17.2,25.463-20.386,44.576-24.688,15.313,1.311,26.3,7.483,9.8,13.993,17.655,17.2,22.54,7.22,29.789,9.349,7.17,7.01,14.848,12.2,11.9,3.613,15.865,8.549,3.966,8.4,0,11.194-10.036.582-15.865,0-24.8-11.314-30.558-11.194-19.036,10.4-26.16,11.194-70.107.354-76.453,0-42.072.846-48.658,0-16.656-12.273-27.475-5.549-25.284,9.1-30.836,5.549S730.932,1351.933,741.744,1341.611Z" transform="translate(-730.476 -1293.864)" fill="#00385e"/>
    </g>
    <g id="cloud-tl" transform="translate(-91.725 185.547)">
      <path id="Path_25-2" data-name="Path 25" d="M742.778,1345.755c11.8-11.218,9.128-20.445,24.241-30.973s13.257,2.794,36.212-11.14,33.5,0,33.5,0,5.37,18.137,13.4,18.7,27.8-22.156,48.666-26.831,16.718,1.425,28.716,8.133,10.7,15.208,19.275,18.7,24.608,7.846,32.522,10.16,7.828,7.619,16.211,13.255,12.99,3.927,17.32,9.291,4.33,9.124,0,12.166-10.957.633-17.32,0-27.079-12.3-33.361-12.166-20.782,11.3-28.56,12.166-76.538.385-83.467,0-45.932.919-53.122,0-18.184-13.339-30-6.03-27.6,9.887-33.664,6.03S730.974,1356.972,742.778,1345.755Z" transform="translate(-730.476 -1293.864)" fill="#00385e"/>
    </g>
    <g id="text-night" transform="translate(266 249)">
      <g id="Group_2292" data-name="Group 2292" transform="translate(-266 -191)">
        <text id="I_m_Fiona_a_UX_Designer_and_Artist_based_in_Edinburgh_" data-name="Im Fiona, a UX Designer and Artist 
based in Edinburgh " transform="translate(266 307)" fill="#fff" font-size="50" font-family="Raleway" font-weight="500"><tspan x="297.425" y="47">Im Fiona, a UX Designer and Artist </tspan><tspan font-weight="300"><tspan x="473.375" y="118.4">based in Edinburgh </tspan></tspan></text>
        <text id="Hello_" data-name="Hello!" transform="translate(864 271)" fill="#fff" font-size="80" font-family="Lobster-Regular, Lobster"><tspan x="0" y="0">Hello!</tspan></text>
      </g>
    </g>
  </g>
</svg>
