<svg width="80" height="80" viewBox="0 0 80 80" fill="none" xmlns="http://www.w3.org/2000/svg">
<path d="M67.866 33.2713C71.564 33.2713 74.5619 36.2692 74.5619 39.9672C74.5619 43.6653 71.564 46.6632 67.866 46.6632C66.1959 46.6632 64.6697 46.0506 63.4969 45.0395C64.7395 44.0201 66.0135 42.9403 67.3207 41.7971C67.7618 41.4113 68.0182 40.856 68.0249 40.27C68.0316 39.684 67.7882 39.1226 67.3559 38.7268C65.9562 37.4453 64.5945 36.2377 63.2665 35.1032C64.4662 33.9684 66.0842 33.2713 67.866 33.2713Z" fill="#FF5D3C"/>
<path d="M15.4876 31.3428C33.5905 20.2145 44.3953 21.0907 63.9395 38.422H43.3759C42.6782 35.4692 40.027 33.2714 36.8611 33.2713C33.163 33.2713 30.1651 36.2692 30.1651 39.9672C30.1651 43.6653 33.163 46.6632 36.8611 46.6632C40.027 46.663 42.6782 44.4653 43.3759 41.5124H64.4989C43.8614 59.1552 33.0529 59.4596 15.4876 49.0031C15.4876 49.0031 10.8115 50.0333 8.23496 49.0031C5.65847 47.973 4.87688 33.4727 8.23545 31.4124C10.0331 29.8671 15.4876 31.3428 15.4876 31.3428Z" fill="#FF5D3C"/>
<path fill-rule="evenodd" clip-rule="evenodd" d="M36.8605 34.3015C39.9896 34.3015 42.5263 36.8381 42.5263 39.9673C42.5263 43.0964 39.9896 45.6331 36.8605 45.6331C33.7313 45.6331 31.1947 43.0964 31.1947 39.9673C31.1947 36.8381 33.7313 34.3015 36.8605 34.3015ZM36.8605 36.3618C34.8692 36.3618 33.255 37.976 33.255 39.9673C33.255 41.9586 34.8692 43.5728 36.8605 43.5728C38.8517 43.5728 40.466 41.9586 40.466 39.9673C40.466 37.976 38.8517 36.3618 36.8605 36.3618Z" fill="#FF5D3C"/>
</svg>
