<svg xmlns="http://www.w3.org/2000/svg" xmlns:xlink="http://www.w3.org/1999/xlink" width="60" height="60" viewBox="0 0 60 60">
  <defs>
    <clipPath id="clip-logo">
      <rect width="60" height="60"/>
    </clipPath>
  </defs>
  <g id="logo" clip-path="url(#clip-logo)">
    <path id="Exclusion_1" data-name="Exclusion 1" d="M30,60A30.008,30.008,0,0,1,18.323,2.358,30.008,30.008,0,0,1,41.678,57.643,29.811,29.811,0,0,1,30,60Zm6.972-35.315a5.64,5.64,0,0,0-4.145,1.634,9.768,9.768,0,0,0-2.376,3.875,13.208,13.208,0,0,0-.743,4.1,4.292,4.292,0,0,0,1.107,3.254,4.339,4.339,0,0,0,3.078,1.04,4.687,4.687,0,0,0,3.139-1,4.983,4.983,0,0,0,1.532-3,7.863,7.863,0,0,1-1.606,1.04,3.776,3.776,0,0,1-1.633.445c-1.075,0-1.62-.754-1.62-2.241a12.008,12.008,0,0,1,.526-3.2,13.061,13.061,0,0,1,1.337-3.186c.537-.887,1.083-1.337,1.62-1.337.484,0,.729.372.729,1.107a4.588,4.588,0,0,1-.324,1.593,1.548,1.548,0,0,0,.945.324,1.3,1.3,0,0,0,1.012-.486A2.195,2.195,0,0,0,39.97,27.2a2.513,2.513,0,0,0-.675-1.809A3.156,3.156,0,0,0,36.973,24.685ZM24.121,20.392h0L20.233,38.428h3.888l2.187-10.152H30.25l.432-2H26.74l1.134-5.373a16.985,16.985,0,0,0,3.78.513,2.764,2.764,0,0,0,1.5-.77,3.17,3.17,0,0,0,.77-1.4c.143-.546.243-.905.3-1.067a7.981,7.981,0,0,1-2.43.324c-.537,0-1.464-.064-2.754-.189a14.724,14.724,0,0,0-1.728-.135,12.41,12.41,0,0,0-5.251.972A6.364,6.364,0,0,0,18.1,25.2a2.519,2.519,0,0,0,.715,2.012,3.312,3.312,0,0,0,2.174.608,2.339,2.339,0,0,0-.189-.446,3.559,3.559,0,0,1-.189-1.39,7.6,7.6,0,0,1,.9-4.293,3.173,3.173,0,0,1,2.6-1.3Z" fill="#bfd3df"/>
  </g>
</svg>
